<?xml version="1.0" encoding="UTF-8"?>
<svg id="Layer_2" data-name="Layer 2" xmlns="http://www.w3.org/2000/svg" viewBox="0 0 1000 1000">
  <defs>
    <style>
      .cls-1 {
        fill: #fff;
      }

      .cls-2 {
        fill: #233642;
      }
    </style>
  </defs>
  <g id="Layer_1-2" data-name="Layer 1">
    <rect class="cls-1" width="1000" height="1000"/>
    <g>
      <g>
        <g>
          <path class="cls-2" d="m652.59,463.85l-26.63,26.63v59.88h-257.49v-173.83h257.49v8.65l18.97-18.97c.08-.08.15-.15.23-.22l7.32-7.32c-.61-3.06-3.62-5.38-7.26-5.38h-296c-4.08,0-7.38,2.92-7.38,6.52v212.8h310.76v-108.75Z"/>
          <rect class="cls-2" x="386.8" y="392.81" width="63.75" height="48.8"/>
          <rect class="cls-2" x="462.27" y="392.81" width="39.03" height="16.25"/>
          <polygon class="cls-2" points="566.36 392.81 566.36 409.06 602.08 409.06 605.39 405.74 605.39 392.81 566.36 392.81"/>
          <path class="cls-2" d="m693.15,582.42h-147.63c0,6.88-5.63,12.52-12.52,12.52h-71.57c-6.88,0-12.52-5.63-12.52-12.52h-147.63c-3.46,0-6.24,3.05-5.73,6.46,1.27,8.36,4.98,6.83,10.74,13.15h0c2.72,2.98,6.57,4.68,10.6,4.68h360.63c4.03,0,7.88-1.7,10.6-4.68,5.76-6.32,9.47-4.79,10.74-13.15.52-3.42-2.27-6.46-5.73-6.46Z"/>
          <rect class="cls-2" x="514.32" y="392.81" width="39.03" height="16.25"/>
        </g>
        <path class="cls-2" d="m588.9,457.03c-1.31,1.31-3.44,1.31-4.76,0l-5.57-5.57c-1.31-1.31-1.31-3.45,0-4.76l73.43-73.43c1.31-1.31,3.44-1.31,4.76,0l5.57,5.57c1.31,1.31,1.31,3.44,0,4.76l-73.43,73.43Zm87.52-59.33c1.31-1.31,1.31-3.44,0-4.76l-5.57-5.57c-1.31-1.31-3.45-1.31-4.76,0l-73.42,73.43c-1.31,1.31-1.31,3.44,0,4.76l5.57,5.57c1.31,1.31,3.45,1.31,4.76,0l73.42-73.42Zm14.09,14.09c1.32-1.32,1.32-3.44,0-4.76l-5.57-5.57c-1.32-1.32-3.44-1.32-4.76,0l-73.43,73.42c-1.31,1.31-1.31,3.44,0,4.76l5.57,5.57c1.31,1.32,3.44,1.32,4.76,0l73.42-73.42Zm6.14-6.14l3.26-3.26c6.13-6.13,6.13-16.07,0-22.21l-16.31-16.31c-6.13-6.13-16.07-6.13-22.2,0l-3.26,3.26,38.51,38.51Z"/>
      </g>
      <circle class="cls-2" cx="410.55" cy="486.2" r="21.24" transform="translate(-156.97 774.06) rotate(-76.72)"/>
      <circle class="cls-2" cx="475.97" cy="486.2" r="21.24" transform="translate(-80.2 878.15) rotate(-80.78)"/>
      <rect class="cls-2" x="389.31" y="525.15" width="219.56" height="12"/>
      <path class="cls-2" d="m555.18,481.61l-.13-.13,2.04-9.55c-3.88-4.27-9.47-6.97-15.7-6.97-11.73,0-21.24,9.51-21.24,21.24s9.51,21.24,21.24,21.24c3.15,0,6.12-.7,8.81-1.93l4.98-23.9Z"/>
      <path class="cls-2" d="m585.05,497.34l23.81-5.4-37.77-37.77-5.13,24.08,19.09,19.09Zm-20.61-11.14l-3.46,16.6,16.6-3.77-13.15-12.84Z"/>
      <rect class="cls-2" x="462.27" y="429.25" width="91.07" height="12.36"/>
    </g>
  </g>
</svg>