<?xml version="1.0" encoding="UTF-8"?>
<svg id="Layer_2" data-name="Layer 2" xmlns="http://www.w3.org/2000/svg" viewBox="0 0 1000 1000">
  <defs>
    <style>
      .cls-1 {
        fill: #fff;
      }

      .cls-2 {
        fill: #024467;
      }
    </style>
  </defs>
  <g id="Layer_1-2" data-name="Layer 1">
    <rect class="cls-1" width="1000" height="1000"/>
    <g id="NewGroupe0">
      <g id="NewGroup24-0">
        <g>
          <path class="cls-2" d="m407.54,531.49c-22.41,0-40.57,18.16-40.57,40.57s18.16,40.57,40.57,40.57,40.57-18.16,40.57-40.57-18.16-40.57-40.57-40.57h0Z"/>
          <path class="cls-2" d="m407.54,649.74c-42.9,0-77.68-34.78-77.68-77.68s34.78-77.68,77.68-77.68,77.68,34.78,77.68,77.68-34.78,77.68-77.68,77.68h0Zm81.13-35.3c2.6-4.97,4.76-10.2,6.42-15.65h19.1c3.1,0,5.63-2.53,5.63-5.63v-42.21c0-3.09-2.53-5.63-5.63-5.63h-19.1c-1.79-5.86-4.15-11.48-7.02-16.78l13.57-13.57c2.19-2.19,2.19-5.77,0-7.96l-29.85-29.85c-2.19-2.19-5.77-2.19-7.96,0l-13.82,13.82c-5-2.62-10.26-4.8-15.75-6.47v-19.1c0-3.09-2.53-5.63-5.63-5.63h-42.21c-3.09,0-5.63,2.53-5.63,5.63v19.1c-5.68,1.73-11.12,4-16.27,6.75l-13.62-13.62c-2.19-2.19-5.77-2.19-7.96,0l-29.85,29.85c-2.19,2.19-2.19,5.77,0,7.96l13.62,13.62c-2.75,5.15-5.01,10.59-6.74,16.27h-19.1c-3.1,0-5.63,2.53-5.63,5.63v42.21c0,3.1,2.53,5.63,5.63,5.63h19.1c1.74,5.71,4.03,11.19,6.8,16.37l-13.2,13.2c-2.19,2.19-2.19,5.77,0,7.96l29.85,29.85c2.19,2.19,5.77,2.19,7.96,0l13.25-13.25c5.12,2.72,10.52,4.97,16.16,6.69v19.1c0,3.09,2.53,5.63,5.63,5.63h42.21c3.1,0,5.63-2.53,5.63-5.63v-19.1c5.9-1.8,11.55-4.18,16.88-7.07l13.16,13.16c2.19,2.19,5.77,2.19,7.96,0l29.85-29.85c2.19-2.19,2.19-5.77,0-7.96l-13.45-13.45h0Z"/>
          <path class="cls-2" d="m407.54,635.27c-34.91,0-63.21-28.3-63.21-63.21s28.3-63.21,63.21-63.21,63.21,28.3,63.21,63.21-28.3,63.21-63.21,63.21h0Zm0-135.86c-40.12,0-72.65,32.53-72.65,72.65s32.53,72.65,72.65,72.65,72.65-32.53,72.65-72.65-32.53-72.65-72.65-72.65h0Z"/>
          <path class="cls-2" d="m591.72,427.56l7.81,5.29-28.25,41.68,28.25,41.68-7.81,5.29-31.84-46.98,31.84-46.98h0Zm25.13,5.29l7.81-5.29,31.84,46.98-31.84,46.98-7.81-5.29,28.25-41.68-28.25-41.68h0Zm-256.41,37.62l6.55,6.55c.68-.29,1.35-.57,2.03-.84v-10.77c0-9.6,7.81-17.42,17.42-17.42h42.21c9.6,0,17.42,7.81,17.42,17.42v10.77c.5.2.99.4,1.48.61l7.96-7.96c3.29-3.29,7.66-5.1,12.32-5.1s9.03,1.81,12.32,5.1l29.85,29.85c3.29,3.29,5.09,7.66,5.09,12.32s-1.81,9.03-5.09,12.32l-7.64,7.64c.37.86.73,1.72,1.08,2.59h10.77c9.6,0,17.42,7.81,17.42,17.42v42.21c0,9.6-7.81,17.42-17.42,17.42h-10.77c-.18.46-.37.91-.56,1.37l7.37,7.37h169.34c8.67,0,15.7-7.03,15.7-15.7v-196.52h-334.83v63.37h0Z"/>
          <path class="cls-2" d="m661.31,370.32c-4.95,0-8.96-4.01-8.96-8.96s4.01-8.96,8.96-8.96,8.96,4.01,8.96,8.96-4.01,8.96-8.96,8.96h0Zm-25.47,0c-4.95,0-8.96-4.01-8.96-8.96s4.01-8.96,8.96-8.96,8.96,4.01,8.96,8.96-4.01,8.96-8.96,8.96h0Zm-25.47,0c-4.95,0-8.96-4.01-8.96-8.96s4.01-8.96,8.96-8.96,8.96,4.01,8.96,8.96-4.01,8.96-8.96,8.96h0Zm-53.76,0h-161.28c-4.95,0-8.96-4.01-8.96-8.96s4.01-8.96,8.96-8.96h161.28c4.95,0,8.96,4.01,8.96,8.96s-4.01,8.96-8.96,8.96h0Zm122.95-34.9h-303.43c-8.67,0-15.7,7.03-15.7,15.7v36.18h334.83v-36.18c0-8.67-7.03-15.7-15.7-15.7h0Z"/>
        </g>
      </g>
    </g>
  </g>
</svg>