<?xml version="1.0" encoding="UTF-8"?>
<svg id="Layer_2" data-name="Layer 2" xmlns="http://www.w3.org/2000/svg" viewBox="0 0 1000 1000">
  <defs>
    <style>
      .cls-1 {
        fill: #fff;
      }

      .cls-2 {
        fill: #3a9bb6;
      }

      .cls-3 {
        fill: #19313e;
      }
    </style>
  </defs>
  <g id="Layer_1-2" data-name="Layer 1">
    <rect class="cls-1" width="1000" height="1000"/>
    <g id="NewGroupe0">
      <g id="NewGroup26-0">
        <g>
          <path class="cls-3" d="m565.4,362.56c6.4,0,11.58,5.18,11.58,11.58s-5.18,11.58-11.58,11.58-11.58-5.18-11.58-11.58,5.18-11.58,11.58-11.58h0Zm50.57,11.58c0,6.4-5.18,11.58-11.58,11.58s-11.58-5.18-11.58-11.58,5.18-11.58,11.58-11.58,11.58,5.18,11.58,11.58h0Zm39,0c0,6.4-5.18,11.58-11.58,11.58s-11.58-5.18-11.58-11.58,5.18-11.58,11.58-11.58,11.58,5.18,11.58,11.58h0Zm-292.79,234.59h30.76c-1.8-3.94-2.76-8.02-2.82-12.19-.01-.16-.01-.33-.01-.49,0-1.07.05-2.13.16-3.17h-25.34v-177.92h304.66v177.92h-25.34c.11,1.04.16,2.1.16,3.17,0,.16,0,.33-.01.49-.06,4.16-1.04,8.25-2.88,12.19h30.82c7.23,0,13.09-5.86,13.09-13.09v-248.02c0-7.23-5.86-13.09-13.09-13.09h-310.17c-7.23,0-13.09,5.86-13.09,13.09v248.02c0,7.23,5.86,13.09,13.09,13.09h0Z"/>
          <path class="cls-2" d="m472.21,584.02c1.97-.79,3.41-2.13,4.34-4.03.91-1.91,1.38-3.78,1.38-5.63,0-1.3-.29-2.69-.89-4.13-.59-1.45-1.38-2.77-2.36-3.95-.99-1.18-2.17-2.17-3.55-2.96-1.38-.78-2.93-1.18-4.63-1.18-.79,0-2.36.33-4.74.99l-47.71,20.9c-4.33,1.9-6.92,4.85-7.77,8.86-.21.99-.32,2.05-.32,3.17,0,.16,0,.33.01.49.07,2.21.69,4.41,1.86,6.62,1.24,2.36,3.25,4.14,6.02,5.33l.56.24,47.75,20.85c2.62.66,4.2.99,4.73.99,3.41,0,6.12-1.26,8.08-3.75,1.97-2.49,2.96-5.19,2.96-8.08,0-1.84-.62-3.81-1.88-5.91-1.06-1.8-2.39-3.17-3.99-4.09-.27-.17-.55-.32-.84-.45l-28.09-11.74-.69-.29,8.19-3.36,21.58-8.86h0Z"/>
          <path class="cls-2" d="m539.45,525.86c-1.71,0-3.35.39-4.92,1.18-1.59.79-2.77,2.3-3.55,4.53l-20.9,61.31-1.24,3.66-4.16,12.19-18.27,53.58c-.27,1.05-.4,1.77-.4,2.17,0,3.16.89,5.62,2.67,7.4,1.78,1.77,3.84,2.66,6.22,2.66,1.7,0,3.45-.52,5.21-1.57,1.78-1.06,3.06-2.77,3.85-5.13l20.18-59.1,4.15-12.19,1.24-3.66,18.78-55c.4-.91.6-2.1.6-3.55,0-2.89-.99-5.03-2.96-6.41-1.96-1.38-4.13-2.07-6.51-2.07h0Z"/>
          <path class="cls-2" d="m563.31,608.27c-.29.13-.57.28-.84.45-1.6.93-2.93,2.29-3.98,4.09-1.26,2.1-1.88,4.07-1.88,5.91,0,2.89.95,5.59,2.85,8.08,1.91,2.5,4.57,3.75,7.99,3.75.39,0,2.04-.33,4.92-.99l47.55-20.85.56-.24c2.77-1.18,4.8-2.96,6.12-5.33,1.23-2.21,1.88-4.41,1.95-6.62.02-.16.02-.33.02-.49,0-1.12-.11-2.18-.33-3.17-.88-4.01-3.53-6.96-7.96-8.86l-47.51-20.9c-2.38-.66-3.95-.99-4.74-.99-1.84,0-3.45.4-4.83,1.18-1.38.79-2.56,1.78-3.55,2.96s-1.75,2.5-2.27,3.95c-.54,1.44-.79,2.83-.79,4.13,0,5,1.9,8.23,5.72,9.66l21.44,8.86,8.14,3.36-.69.29-27.89,11.74h0Z"/>
          <path class="cls-2" d="m466.08,519.53v-79.96c0-3.49-2.83-6.33-6.33-6.33h-61.68c-3.49,0-6.33,2.83-6.33,6.33v79.96c0,3.49,2.83,6.33,6.33,6.33h61.68c3.49,0,6.33-2.83,6.33-6.33h0Z"/>
          <path class="cls-2" d="m647.05,433.24h-136.49c-4.37,0-7.92,3.55-7.92,7.92s3.55,7.92,7.92,7.92h136.49c4.38,0,7.92-3.55,7.92-7.92s-3.55-7.92-7.92-7.92h0Z"/>
          <path class="cls-2" d="m510.56,480.77h96.27c4.37,0,7.92-3.55,7.92-7.92s-3.55-7.92-7.92-7.92h-96.27c-4.37,0-7.92,3.55-7.92,7.92s3.55,7.92,7.92,7.92h0Z"/>
          <path class="cls-2" d="m654.97,504.53c0-4.37-3.55-7.92-7.92-7.92h-136.49c-4.37,0-7.92,3.55-7.92,7.92s3.55,7.92,7.92,7.92h136.49c4.38,0,7.92-3.55,7.92-7.92h0Z"/>
          <path class="cls-2" d="m647.05,464.93h-13.41c-4.37,0-7.92,3.55-7.92,7.92s3.55,7.92,7.92,7.92h13.41c4.38,0,7.92-3.55,7.92-7.92s-3.55-7.92-7.92-7.92h0Z"/>
        </g>
      </g>
    </g>
  </g>
</svg>