<?xml version="1.0" encoding="UTF-8"?>
<svg id="Layer_2" data-name="Layer 2" xmlns="http://www.w3.org/2000/svg" viewBox="0 0 1000 1000">
  <defs>
    <style>
      .cls-1 {
        fill: #fff;
      }

      .cls-2 {
        fill: #024467;
      }

      .cls-3 {
        fill: #024468;
      }
    </style>
  </defs>
  <g id="Layer_1-2" data-name="Layer 1">
    <rect class="cls-1" width="1000" height="1000"/>
    <g id="NewGroupe0">
      <g id="NewGroup24-0">
        <g>
          <path class="cls-2" d="m407.54,531.49c-22.41,0-40.57,18.16-40.57,40.57s18.16,40.57,40.57,40.57,40.57-18.16,40.57-40.57-18.16-40.57-40.57-40.57h0Z"/>
          <path class="cls-2" d="m407.54,649.74c-42.9,0-77.68-34.78-77.68-77.68s34.78-77.68,77.68-77.68,77.68,34.78,77.68,77.68-34.78,77.68-77.68,77.68h0Zm81.13-35.3c2.6-4.97,4.76-10.2,6.42-15.65h19.1c3.1,0,5.63-2.53,5.63-5.63v-42.21c0-3.09-2.53-5.63-5.63-5.63h-19.1c-1.79-5.86-4.15-11.48-7.02-16.78l13.57-13.57c2.19-2.19,2.19-5.77,0-7.96l-29.85-29.85c-2.19-2.19-5.77-2.19-7.96,0l-13.82,13.82c-5-2.62-10.26-4.8-15.75-6.47v-19.1c0-3.09-2.53-5.63-5.63-5.63h-42.21c-3.09,0-5.63,2.53-5.63,5.63v19.1c-5.68,1.73-11.12,4-16.27,6.75l-13.62-13.62c-2.19-2.19-5.77-2.19-7.96,0l-29.85,29.85c-2.19,2.19-2.19,5.77,0,7.96l13.62,13.62c-2.75,5.15-5.01,10.59-6.74,16.27h-19.1c-3.1,0-5.63,2.53-5.63,5.63v42.21c0,3.1,2.53,5.63,5.63,5.63h19.1c1.74,5.71,4.03,11.19,6.8,16.37l-13.2,13.2c-2.19,2.19-2.19,5.77,0,7.96l29.85,29.85c2.19,2.19,5.77,2.19,7.96,0l13.25-13.25c5.12,2.72,10.52,4.97,16.16,6.69v19.1c0,3.09,2.53,5.63,5.63,5.63h42.21c3.1,0,5.63-2.53,5.63-5.63v-19.1c5.9-1.8,11.55-4.18,16.88-7.07l13.16,13.16c2.19,2.19,5.77,2.19,7.96,0l29.85-29.85c2.19-2.19,2.19-5.77,0-7.96l-13.45-13.45h0Z"/>
          <path class="cls-2" d="m407.54,635.27c-34.91,0-63.21-28.3-63.21-63.21s28.3-63.21,63.21-63.21,63.21,28.3,63.21,63.21-28.3,63.21-63.21,63.21h0Zm0-135.86c-40.12,0-72.65,32.53-72.65,72.65s32.53,72.65,72.65,72.65,72.65-32.53,72.65-72.65-32.53-72.65-72.65-72.65h0Z"/>
          <path class="cls-2" d="m591.72,427.56l7.81,5.29-28.25,41.68,28.25,41.68-7.81,5.29-31.84-46.98,31.84-46.98h0Zm25.13,5.29l7.81-5.29,31.84,46.98-31.84,46.98-7.81-5.29,28.25-41.68-28.25-41.68h0Zm-256.41,37.62l6.55,6.55c.68-.29,1.35-.57,2.03-.84v-10.77c0-9.6,7.81-17.42,17.42-17.42h42.21c9.6,0,17.42,7.81,17.42,17.42v10.77c.5.2.99.4,1.48.61l7.96-7.96c3.29-3.29,7.66-5.1,12.32-5.1s9.03,1.81,12.32,5.1l29.85,29.85c3.29,3.29,5.09,7.66,5.09,12.32s-1.81,9.03-5.09,12.32l-7.64,7.64c.37.86.73,1.72,1.08,2.59h10.77c9.6,0,17.42,7.81,17.42,17.42v42.21c0,9.6-7.81,17.42-17.42,17.42h-10.77c-.18.46-.37.91-.56,1.37l7.37,7.37h169.34c8.67,0,15.7-7.03,15.7-15.7v-196.52h-334.83v63.37h0Z"/>
          <path class="cls-2" d="m661.31,370.32c-4.95,0-8.96-4.01-8.96-8.96s4.01-8.96,8.96-8.96,8.96,4.01,8.96,8.96-4.01,8.96-8.96,8.96h0Zm-25.47,0c-4.95,0-8.96-4.01-8.96-8.96s4.01-8.96,8.96-8.96,8.96,4.01,8.96,8.96-4.01,8.96-8.96,8.96h0Zm-25.47,0c-4.95,0-8.96-4.01-8.96-8.96s4.01-8.96,8.96-8.96,8.96,4.01,8.96,8.96-4.01,8.96-8.96,8.96h0Zm-53.76,0h-161.28c-4.95,0-8.96-4.01-8.96-8.96s4.01-8.96,8.96-8.96h161.28c4.95,0,8.96,4.01,8.96,8.96s-4.01,8.96-8.96,8.96h0Zm122.95-34.9h-303.43c-8.67,0-15.7,7.03-15.7,15.7v36.18h334.83v-36.18c0-8.67-7.03-15.7-15.7-15.7h0Z"/>
        </g>
      </g>
      <g id="text">
        <g>
          <path class="cls-3" d="m397.27,788c0,4.6-2.8,6.95-5.55,8.15,4.15,1.25,7.5,3.65,7.5,8.5,0,6.05-5.05,9.6-12.7,9.6h-15.55v-35h14.9c6.9,0,11.4,3.4,11.4,8.75Zm-4,.55c0-3.5-2.75-5.75-7.75-5.75h-10.65v12.05h10.35c4.75,0,8.05-2.15,8.05-6.3Zm1.95,15.85c0-3.85-3.2-6.05-9.3-6.05h-11.05v12.35h11.75c5.3,0,8.6-2.35,8.6-6.3Z"/>
          <path class="cls-3" d="m439.67,814.25h-4.25l-4.1-9.25h-19.05l-4.15,9.25h-4.05l15.95-35.25h3.7l15.95,35.25Zm-17.85-30.65l-8,17.85h15.95l-7.95-17.85Z"/>
          <path class="cls-3" d="m460.52,814.85c-10.1,0-17.55-7.95-17.55-18.05s7.4-18.15,17.7-18.15c6.35,0,10.15,2.25,13.65,5.55l-2.7,2.9c-2.95-2.8-6.25-4.8-11-4.8-7.75,0-13.55,6.25-13.55,14.4s5.85,14.5,13.55,14.5c4.8,0,7.95-1.85,11.3-5.05l2.6,2.55c-3.65,3.7-7.65,6.15-14,6.15Z"/>
          <path class="cls-3" d="m511.22,814.25h-4.95l-13.45-16.95-7.45,7.55v9.4h-3.95v-35h3.95v20.9l20.1-20.9h5.1l-15,15.3,15.65,19.7Z"/>
          <path class="cls-3" d="m542.67,782.85h-21.35v11.95h19.1v3.6h-19.1v12.25h21.6v3.6h-25.55v-35h25.3v3.6Z"/>
          <path class="cls-3" d="m576.62,779.25h3.85v35h-3.15l-22.6-28.7v28.7h-3.85v-35h3.7l22.05,28.05v-28.05Z"/>
          <path class="cls-3" d="m602.52,814.25h-12.15v-35h12.15c11,0,18.6,7.55,18.6,17.45s-7.6,17.55-18.6,17.55Zm0-31.35h-8.2v27.7h8.2c8.85,0,14.5-6,14.5-13.8s-5.65-13.9-14.5-13.9Z"/>
        </g>
      </g>
    </g>
  </g>
</svg>