<svg width="993" height="1252" xmlns="http://www.w3.org/2000/svg" xmlns:xlink="http://www.w3.org/1999/xlink" xml:space="preserve" overflow="hidden"><defs><clipPath id="clip0"><rect x="3213" y="8" width="993" height="1252"/></clipPath></defs><g clip-path="url(#clip0)" transform="translate(-3213 -8)"><path d="M0.0621584 24.2164C2.18478-37.1831 70.3797 35.9582 90.8113 49.1675 111.243 62.3769 108.59 43.5414 122.653 103.473 136.717 163.405 182.622 356.409 175.192 408.758 167.762 461.107 105.671 480.431 78.0745 417.564 50.4783 354.697-2.06046 85.6159 0.0621584 24.2164Z" stroke="#203864" stroke-width="4.58333" stroke-miterlimit="8" fill="#203864" fill-rule="evenodd" transform="matrix(-1 0 0 1 3472.5 711.5)"/><path d="M3763.5 36.5211C3747.95 20.7266 3732.4 4.9324 3696.33 12.4141 3660.25 19.8957 3591.14 44.4181 3547.05 81.41 3502.96 118.402 3451.96 197.234 3431.78 234.365 3411.6 271.495 3424.32 296.433 3425.97 304.192 3427.63 311.95 3435.93 273.296 3441.73 280.916 3447.54 288.536 3451.68 334.118 3460.8 349.912 3469.93 365.706 3489.14 346.725 3496.46 375.681 3503.79 404.637 3509.32 478.482 3504.76 523.648 3500.2 568.814 3480.71 614.95 3469.1 646.677 3457.49 678.404 3441.59 691.427 3435.1 714.01 3428.6 736.593 3423.21 783.422 3430.12 782.175 3437.03 780.928 3470.07 707.36 3476.56 706.529 3483.06 705.697 3461.22 756.821 3469.1 777.187 3476.98 797.553 3518.03 835.376 3523.83 828.726 3529.64 822.076 3498.4 763.333 3503.93 737.286 3509.46 711.24 3537.93 684.5 3557 672.446 3576.08 660.393 3606.21 673.97 3618.37 664.965 3630.53 655.96 3641.73 643.213 3629.98 618.413 3618.23 593.614 3567.65 568.122 3547.88 516.167 3528.12 464.212 3488.17 371.94 3511.39 306.685 3534.61 241.43 3687.2 124.636 3687.2 124.636L3763.5 36.5211Z" stroke="#000000" stroke-width="4.58333" stroke-miterlimit="8" fill-rule="evenodd"/><path d="M3822.16 653.427C3862.33 657.783 3826.52 653.238 3842.63 659.109 3858.73 664.98 3901.56 680.131 3918.8 688.654 3936.04 697.176 3940.02 693.199 3946.09 710.245 3952.15 727.29 3947.79 711.76 3955.18 790.925 3962.57 870.091 4048.6 1109.29 3990.43 1185.24 3932.25 1261.18 3698.05 1239.97 3606.15 1246.6 3514.25 1253.23 3471.8 1241.68 3439.02 1225.01 3406.24 1208.34 3407.19 1226.15 3409.46 1146.6 3411.74 1067.06 3420.64 833.349 3452.67 747.744 3484.69 662.139 3537.56 649.071 3601.6 632.973 3665.65 616.875 3781.99 649.071 3822.16 653.427Z" stroke="#203864" stroke-width="4.58333" stroke-miterlimit="8" fill="#203864" fill-rule="evenodd"/><path d="M3508.12 378.803C3500.21 362.103 3481.81 373.173 3476.09 379.375 3470.37 385.578 3471.7 401.037 3473.8 416.019 3475.9 431.001 3480.38 458.675 3488.67 469.267 3496.97 479.86 3520.9 494.651 3523.57 479.573 3526.24 464.496 3516.03 395.503 3508.12 378.803Z" fill="#F2A16A" fill-rule="evenodd"/><path d="M36.1208 8.80316C28.2074-7.89644 9.807 3.17279 4.08661 9.37553-1.63378 15.5783-0.299082 31.0372 1.79846 46.0193 3.89599 61.0014 8.37682 88.675 16.6715 99.2674 24.9661 109.86 48.8967 124.651 51.5661 109.573 54.2355 94.4962 44.0342 25.5028 36.1208 8.80316Z" fill="#F2A16A" fill-rule="evenodd" transform="matrix(-1 0 0 1 3923 373)"/><path d="M3777.49 576.392C3805.4 585.701 3778.63 626.182 3786.89 642.402 3795.15 658.622 3822.63 658.623 3827.05 673.715 3831.46 688.807 3835.45 717.016 3813.38 732.954 3791.31 748.892 3736.2 771.601 3694.61 769.344 3653.03 767.088 3583.54 737.75 3563.89 719.414 3544.24 701.078 3569.16 673.432 3576.71 659.328 3584.25 645.223 3605.47 649.455 3609.17 634.786 3612.88 620.117 3597.21 579.354 3598.92 571.314 3600.63 563.275 3589.95 584.432 3619.43 586.548 3648.9 588.663 3749.58 567.083 3777.49 576.392Z" stroke="#F2A16A" stroke-width="4.58333" stroke-miterlimit="8" fill="#F2A16A" fill-rule="evenodd"/><path d="M3500.5 369C3500.5 231.757 3588.7 120.5 3697.5 120.5 3806.3 120.5 3894.5 231.757 3894.5 369 3894.5 506.243 3806.3 617.5 3697.5 617.5 3588.7 617.5 3500.5 506.243 3500.5 369Z" stroke="#F2A16A" stroke-width="4.58333" stroke-miterlimit="8" fill="#F2A16A" fill-rule="evenodd"/><path d="M3760.07 42.1826C3776.11 27.5745 3773.94 37.7152 3786.56 40.8603 3799.19 44.0054 3813.85 42.3493 3835.8 61.0542 3857.75 79.7595 3895.64 132.416 3918.26 153.091 3940.88 173.766 3967.98 178.911 3971.51 185.104 3975.04 191.297 3938.97 187.295 3939.44 190.248 3939.92 193.202 3968.08 198.156 3974.37 202.825 3980.67 207.493 3979.15 216.926 3977.24 218.26 3975.33 219.593 3962.64 208.065 3962.92 210.828 3963.21 213.591 3976.66 225.977 3978.96 234.837 3981.25 243.698 3984.2 247.605 3976.66 263.992 3969.13 280.379 3944.79 314.488 3933.72 333.162 3922.65 351.836 3915.59 367.652 3910.24 376.036 3904.9 384.421 3904.52 383.468 3901.65 383.468 3898.79 383.468 3894.4 383.944 3893.06 376.036 3891.73 368.129 3896.69 356.6 3893.64 336.021 3890.58 315.441 3888.77 281.523 3874.74 252.559 3860.71 223.595 3835.8 184.341 3809.46 162.237 3783.12 140.133 3736.55 125.556 3716.7 119.935 3696.85 114.313 3683.39 141.276 3690.36 128.51 3697.33 115.743 3744.04 56.7906 3760.07 42.1826Z" stroke="#000000" stroke-width="4.58333" stroke-miterlimit="8" fill-rule="evenodd"/><path d="M3682.47 122.807C3683.44 127.759 3660.88 123.453 3655.91 123.453 3650.95 123.453 3656.02 121.085 3652.67 122.807 3649.33 124.53 3639.39 137.664 3635.83 133.788 3632.27 129.913 3628.92 106.228 3631.3 99.5537 3633.67 92.8791 3641.55 90.9411 3650.08 93.7402 3658.61 96.5392 3681.5 117.855 3682.47 122.807Z" stroke="#000000" stroke-width="4.58333" stroke-miterlimit="8" fill-rule="evenodd"/><path d="M3666.5 94.5C3666.5 82.9021 3679.04 73.5001 3694.5 73.5001 3709.96 73.5001 3722.5 82.9021 3722.5 94.5 3722.5 106.098 3709.96 115.5 3694.5 115.5 3679.04 115.5 3666.5 106.098 3666.5 94.5Z" stroke="#000000" stroke-width="4.58333" stroke-miterlimit="8" fill-rule="evenodd"/><path d="M3759.93 312.746C3751.09 311.228 3772.83 301.46 3786.02 301.025 3799.2 300.589 3845.01 305.402 3839.03 310.132 3833.04 314.862 3768.76 314.264 3759.93 312.746Z" stroke="#000000" stroke-width="4.58333" stroke-miterlimit="8" fill-rule="evenodd"/><path d="M3675.5 467.5 3679.5 451.5 3718.5 451.5 3722.5 467.5Z" stroke="#F4B184" stroke-width="4.58333" stroke-miterlimit="8" fill="#F2A16A" fill-rule="evenodd"/><path d="M3691.45 126.037C3692.84 120.352 3662.12 79.7258 3650.77 61.1457 3639.42 42.5655 3634.99 13.0313 3623.37 14.5566 3611.74 16.082 3602.47 50.6077 3581.02 70.297 3559.57 89.9864 3517.08 110.23 3494.66 132.693 3472.24 155.155 3460.34 181.916 3446.5 205.072 3432.67 228.227 3409.55 260.118 3411.63 271.627 3413.71 283.136 3441.66 277.451 3458.96 274.123 3476.26 270.795 3487.88 268.577 3515.42 251.661 3542.96 234.745 3603.02 198.694 3624.2 172.626 3645.37 146.559 3632.78 102.327 3642.46 95.2552 3652.15 88.1836 3690.07 131.722 3691.45 126.037Z" stroke="#000000" stroke-width="4.58333" stroke-miterlimit="8" fill="#0D0D0D" fill-rule="evenodd"/><path d="M3933.56 729.716C3935.68 668.317 4003.88 741.458 4024.31 754.667 4044.74 767.877 4042.09 749.041 4056.15 808.973 4070.22 868.905 4116.12 1061.91 4108.69 1114.26 4101.26 1166.61 4039.17 1185.93 4011.57 1123.06 3983.98 1060.2 3931.44 791.116 3933.56 729.716Z" stroke="#203864" stroke-width="4.58333" stroke-miterlimit="8" fill="#203864" fill-rule="evenodd"/><path d="M3324.5 1172C3324.5 1127.54 3369.5 1091.5 3425 1091.5 3480.5 1091.5 3525.5 1127.54 3525.5 1172 3525.5 1216.46 3480.5 1252.5 3425 1252.5 3369.5 1252.5 3324.5 1216.46 3324.5 1172Z" stroke="#F4B184" stroke-width="4.58333" stroke-miterlimit="8" fill="#F6BE98" fill-rule="evenodd"/><path d="M3894.5 1177C3894.5 1132.54 3939.5 1096.5 3995 1096.5 4050.5 1096.5 4095.5 1132.54 4095.5 1177 4095.5 1221.46 4050.5 1257.5 3995 1257.5 3939.5 1257.5 3894.5 1221.46 3894.5 1177Z" stroke="#F4B184" stroke-width="4.58333" stroke-miterlimit="8" fill="#F6BE98" fill-rule="evenodd"/><path d="M3217.5 779.5 4201.5 779.5 4004.7 1251.5 3414.3 1251.5Z" stroke="#787878" stroke-width="4.58333" stroke-miterlimit="8" fill="#A5A5A5" fill-rule="evenodd"/><path d="M1.23558 3.25203C-5.66319-2.47234 18.051-0.0875878 29.6929 6.11395 41.3347 12.3155 78.6315 39.3479 71.0858 40.4608 63.5405 41.5741 8.13435 8.97641 1.23558 3.25203Z" stroke="#000000" stroke-width="4.58333" stroke-miterlimit="8" fill-rule="evenodd" transform="matrix(-0.917688 -0.397302 -0.397302 0.917688 3638.18 308.641)"/><path d="M3622.5 386C3622.5 379.097 3626.75 373.5 3632 373.5 3637.25 373.5 3641.5 379.097 3641.5 386 3641.5 392.904 3637.25 398.5 3632 398.5 3626.75 398.5 3622.5 392.904 3622.5 386Z" stroke="#000000" stroke-width="4.58333" stroke-miterlimit="8" fill-rule="evenodd"/><path d="M3753.5 386C3753.5 379.097 3757.75 373.5 3763 373.5 3768.25 373.5 3772.5 379.097 3772.5 386 3772.5 392.904 3768.25 398.5 3763 398.5 3757.75 398.5 3753.5 392.904 3753.5 386Z" stroke="#000000" stroke-width="4.58333" stroke-miterlimit="8" fill-rule="evenodd"/><path d="M3696.5 520C3660.33 520 3631 514.404 3631 507.5" stroke="#000000" stroke-width="2.29167" stroke-miterlimit="8" fill="none" fill-rule="evenodd"/><path d="M3772.5 1020.5 3754.75 1091.5 3655.25 1091.5 3637.5 1020.5Z" stroke="#F2F2F2" stroke-width="4.58333" stroke-miterlimit="8" fill="#D9D9D9" fill-rule="evenodd"/></g></svg>