<svg width="992" height="1252" xmlns="http://www.w3.org/2000/svg" xmlns:xlink="http://www.w3.org/1999/xlink" xml:space="preserve" overflow="hidden"><defs><clipPath id="clip0"><rect x="1043" y="-2" width="992" height="1252"/></clipPath></defs><g clip-path="url(#clip0)" transform="translate(-1043 2)"><path d="M0.0621584 24.2694C2.18478-37.2645 70.3797 36.0368 90.8113 49.2751 111.243 62.5134 108.59 43.6367 122.653 103.699 136.717 163.762 182.622 357.189 175.192 409.652 167.762 462.116 105.671 481.483 78.0745 418.478 50.4783 355.473-2.06046 85.8032 0.0621584 24.2694Z" stroke="#203864" stroke-width="4.58333" stroke-miterlimit="8" fill="#203864" fill-rule="evenodd" transform="matrix(-1 0 0 1 1301.5 701.5)"/><path d="M1593.5 26.5207C1577.91 10.7262 1562.31-5.06793 1526.13 2.41374 1489.95 9.89541 1420.64 34.4178 1376.42 71.4097 1332.2 108.402 1281.05 187.234 1260.81 224.364 1240.57 261.495 1253.33 286.433 1254.99 294.192 1256.65 301.95 1264.97 263.296 1270.79 270.916 1276.61 278.536 1280.77 324.118 1289.92 339.912 1299.07 355.706 1318.34 336.725 1325.69 365.681 1333.03 394.637 1338.58 468.482 1334 513.648 1329.43 558.814 1309.88 604.95 1298.24 636.677 1286.6 668.404 1270.65 681.427 1264.14 704.01 1257.62 726.593 1252.22 773.422 1259.15 772.175 1266.08 770.928 1299.21 697.36 1305.72 696.528 1312.24 695.697 1290.34 746.821 1298.24 767.187 1306.14 787.553 1347.31 825.376 1353.13 818.726 1358.95 812.076 1327.63 753.333 1333.17 727.286 1338.72 701.239 1367.27 674.5 1386.4 662.446 1405.53 650.393 1435.75 663.97 1447.95 654.965 1460.15 645.96 1471.38 633.213 1459.59 608.413 1447.81 583.614 1397.08 558.122 1377.25 506.167 1357.43 454.212 1317.37 361.94 1340.66 296.685 1363.95 231.43 1516.98 114.636 1516.98 114.636L1593.5 26.5207Z" stroke="#000000" stroke-width="4.58333" stroke-miterlimit="8" fill-rule="evenodd"/><path d="M1651.85 643.468C1692.09 647.831 1656.22 643.278 1672.35 649.159 1688.48 655.039 1731.38 670.215 1748.65 678.751 1765.92 687.287 1769.91 683.304 1775.98 700.376 1782.05 717.449 1777.69 701.894 1785.09 781.187 1792.49 860.48 1878.66 1100.07 1820.39 1176.14 1762.12 1252.2 1527.53 1230.96 1435.48 1237.6 1343.43 1244.24 1300.91 1232.66 1268.07 1215.97 1235.24 1199.28 1236.19 1217.11 1238.47 1137.44 1240.74 1057.76 1249.66 823.679 1281.74 737.936 1313.82 652.194 1366.77 639.104 1430.92 622.98 1495.08 606.856 1611.61 639.104 1651.85 643.468Z" stroke="#203864" stroke-width="4.58333" stroke-miterlimit="8" fill="#203864" fill-rule="evenodd"/><path d="M1337.12 369.803C1329.21 353.103 1310.81 364.173 1305.09 370.375 1299.37 376.578 1300.7 392.037 1302.8 407.019 1304.9 422.001 1309.38 449.675 1317.67 460.267 1325.97 470.86 1349.9 485.651 1352.57 470.573 1355.24 455.496 1345.03 386.503 1337.12 369.803Z" fill="#F2A16A" fill-rule="evenodd"/><path d="M36.1211 8.80313C28.2076-7.89642 9.80707 3.17278 4.08664 9.37551-1.63379 15.5782-0.299084 31.0371 1.79847 46.0191 3.89602 61.0012 8.37687 88.6747 16.6716 99.2671 24.9663 109.859 48.897 124.65 51.5664 109.573 54.2358 94.4959 44.0345 25.5027 36.1211 8.80313Z" fill="#F2A16A" fill-rule="evenodd" transform="matrix(-1 0 0 1 1752 363)"/><path d="M1606.49 566.392C1634.4 575.701 1607.63 616.182 1615.89 632.402 1624.15 648.622 1651.63 648.623 1656.05 663.714 1660.46 678.806 1664.45 707.016 1642.38 722.954 1620.31 738.892 1565.2 761.601 1523.61 759.344 1482.03 757.087 1412.54 727.749 1392.89 709.413 1373.24 691.077 1398.16 663.432 1405.71 649.328 1413.25 635.223 1434.47 639.455 1438.17 624.786 1441.88 610.117 1426.21 569.354 1427.92 561.314 1429.63 553.275 1418.95 574.432 1448.43 576.547 1477.9 578.663 1578.58 557.083 1606.49 566.392Z" stroke="#F2A16A" stroke-width="4.58333" stroke-miterlimit="8" fill="#F2A16A" fill-rule="evenodd"/><path d="M1329.5 359.5C1329.5 221.981 1417.7 110.5 1526.5 110.5 1635.3 110.5 1723.5 221.981 1723.5 359.5 1723.5 497.019 1635.3 608.5 1526.5 608.5 1417.7 608.5 1329.5 497.019 1329.5 359.5Z" stroke="#FFB871" stroke-width="3.4375" stroke-miterlimit="8" fill="#F2A16A" fill-rule="evenodd"/><path d="M1586.07 31.2046C1602.11 16.5546 1599.94 26.7244 1612.56 29.8785 1625.19 33.0326 1639.85 31.3718 1661.8 50.1303 1683.75 68.8892 1721.64 121.696 1744.26 142.431 1766.88 163.165 1793.98 168.324 1797.51 174.535 1801.04 180.746 1764.97 176.733 1765.44 179.695 1765.92 182.657 1794.08 187.625 1800.37 192.307 1806.67 196.989 1805.15 206.448 1803.24 207.786 1801.33 209.124 1788.64 197.562 1788.92 200.333 1789.21 203.104 1802.66 215.525 1804.95 224.411 1807.25 233.297 1810.2 237.215 1802.66 253.65 1795.13 270.084 1770.79 304.29 1759.72 323.018 1748.65 341.745 1741.59 357.607 1736.24 366.015 1730.9 374.423 1730.52 373.468 1727.65 373.468 1724.79 373.468 1720.4 373.945 1719.06 366.015 1717.73 358.085 1722.69 346.523 1719.64 325.884 1716.58 305.246 1714.77 271.23 1700.74 242.184 1686.71 213.137 1661.8 173.771 1635.46 151.603 1609.12 129.436 1562.55 114.817 1542.7 109.18 1522.85 103.542 1509.39 130.582 1516.36 117.779 1523.33 104.975 1570.04 45.8545 1586.07 31.2046Z" stroke="#000000" stroke-width="4.58333" stroke-miterlimit="8" fill-rule="evenodd"/><path d="M1511.47 112.807C1512.44 117.759 1489.88 113.453 1484.91 113.453 1479.95 113.453 1485.02 111.085 1481.67 112.807 1478.33 114.53 1468.39 127.664 1464.83 123.788 1461.27 119.913 1457.92 96.2283 1460.3 89.5537 1462.67 82.8791 1470.55 80.9411 1479.08 83.7402 1487.61 86.5393 1510.5 107.855 1511.47 112.807Z" stroke="#000000" stroke-width="4.58333" stroke-miterlimit="8" fill-rule="evenodd"/><path d="M1496.5 85.5001C1496.5 73.9021 1508.81 64.5001 1524 64.5001 1539.19 64.5001 1551.5 73.9021 1551.5 85.5001 1551.5 97.0981 1539.19 106.5 1524 106.5 1508.81 106.5 1496.5 97.0981 1496.5 85.5001Z" stroke="#000000" stroke-width="4.58333" stroke-miterlimit="8" fill-rule="evenodd"/><path d="M1589 303.058C1580.17 301.54 1601.91 291.773 1615.09 291.337 1628.27 290.901 1674.08 295.714 1668.1 300.444 1662.12 305.175 1597.84 304.576 1589 303.058Z" stroke="#000000" stroke-width="4.58333" stroke-miterlimit="8" fill-rule="evenodd"/><path d="M1496.5 468.5 1505.75 431.5 1550.25 431.5 1559.5 468.5Z" stroke="#F4B183" stroke-width="4.58333" stroke-miterlimit="8" fill="#F2A16A" fill-rule="evenodd"/><path d="M1520.45 116.037C1521.84 110.352 1491.12 69.7258 1479.77 51.1457 1468.42 32.5656 1463.99 3.03133 1452.37 4.55668 1440.74 6.08202 1431.47 40.6077 1410.02 60.2971 1388.57 79.9864 1346.08 100.23 1323.66 122.693 1301.24 145.155 1289.34 171.916 1275.5 195.072 1261.67 218.227 1238.55 250.118 1240.63 261.627 1242.71 273.136 1270.66 267.451 1287.96 264.123 1305.26 260.795 1316.88 258.577 1344.42 241.661 1371.96 224.745 1432.02 188.694 1453.2 162.626 1474.37 136.559 1461.78 92.3268 1471.46 85.2553 1481.15 78.1837 1519.07 121.722 1520.45 116.037Z" stroke="#000000" stroke-width="4.58333" stroke-miterlimit="8" fill="#0D0D0D" fill-rule="evenodd"/><path d="M1762.56 719.716C1764.68 658.317 1832.88 731.458 1853.31 744.667 1873.74 757.877 1871.09 739.041 1885.15 798.973 1899.22 858.905 1945.12 1051.91 1937.69 1104.26 1930.26 1156.61 1868.17 1175.93 1840.57 1113.06 1812.98 1050.2 1760.44 781.116 1762.56 719.716Z" stroke="#203864" stroke-width="4.58333" stroke-miterlimit="8" fill="#203864" fill-rule="evenodd"/><path d="M1153.5 1163C1153.5 1118.54 1198.5 1082.5 1254 1082.5 1309.5 1082.5 1354.5 1118.54 1354.5 1163 1354.5 1207.46 1309.5 1243.5 1254 1243.5 1198.5 1243.5 1153.5 1207.46 1153.5 1163Z" stroke="#F4B184" stroke-width="4.58333" stroke-miterlimit="8" fill="#F4B184" fill-rule="evenodd"/><path d="M1723.5 1167C1723.5 1122.54 1768.5 1086.5 1824 1086.5 1879.5 1086.5 1924.5 1122.54 1924.5 1167 1924.5 1211.46 1879.5 1247.5 1824 1247.5 1768.5 1247.5 1723.5 1211.46 1723.5 1167Z" stroke="#F4B184" stroke-width="4.58333" stroke-miterlimit="8" fill="#F4B184" fill-rule="evenodd"/><path d="M1047.5 770.5 2030.5 770.5 1833.9 1241.5 1244.1 1241.5Z" stroke="#787878" stroke-width="4.58333" stroke-miterlimit="8" fill="#A5A5A5" fill-rule="evenodd"/><path d="M1.23558 3.25203C-5.66319-2.47234 18.051-0.0875878 29.6929 6.11395 41.3347 12.3155 78.6315 39.3479 71.0858 40.4608 63.5405 41.5741 8.13435 8.97641 1.23558 3.25203Z" stroke="#000000" stroke-width="4.58333" stroke-miterlimit="8" fill-rule="evenodd" transform="matrix(-0.917688 -0.397302 -0.397302 0.917688 1467.26 298.953)"/><path d="M1451.5 376.5C1451.5 369.32 1455.75 363.5 1461 363.5 1466.25 363.5 1470.5 369.32 1470.5 376.5 1470.5 383.68 1466.25 389.5 1461 389.5 1455.75 389.5 1451.5 383.68 1451.5 376.5Z" stroke="#000000" stroke-width="4.58333" stroke-miterlimit="8" fill-rule="evenodd"/><path d="M1582.5 376.5C1582.5 369.32 1586.75 363.5 1592 363.5 1597.25 363.5 1601.5 369.32 1601.5 376.5 1601.5 383.68 1597.25 389.5 1592 389.5 1586.75 389.5 1582.5 383.68 1582.5 376.5Z" stroke="#000000" stroke-width="4.58333" stroke-miterlimit="8" fill-rule="evenodd"/><path d="M1526 510C1490.1 510 1461 504.404 1461 497.5" stroke="#000000" stroke-width="2.29167" stroke-miterlimit="8" fill="none" fill-rule="evenodd"/><path d="M1601.5 1010.5 1583.5 1082.5 1484.5 1082.5 1466.5 1010.5Z" stroke="#F2F2F2" stroke-width="4.58333" stroke-miterlimit="8" fill="#D9D9D9" fill-rule="evenodd"/></g></svg>