<svg width="993" height="1252" xmlns="http://www.w3.org/2000/svg" xmlns:xlink="http://www.w3.org/1999/xlink" xml:space="preserve" overflow="hidden"><defs><clipPath id="clip0"><rect x="2124" y="-2" width="993" height="1252"/></clipPath></defs><g clip-path="url(#clip0)" transform="translate(-2124 2)"><path d="M0.0621584 24.2694C2.18478-37.2645 70.3797 36.0368 90.8113 49.2751 111.243 62.5134 108.59 43.6367 122.653 103.699 136.717 163.762 182.622 357.189 175.192 409.652 167.762 462.116 105.671 481.483 78.0745 418.478 50.4783 355.473-2.06046 85.8032 0.0621584 24.2694Z" stroke="#000000" stroke-width="4.58333" stroke-miterlimit="8" fill="#203864" fill-rule="evenodd" transform="matrix(-1 0 0 1 2382.5 701.5)"/><path d="M2674.5 26.5207C2658.91 10.7262 2643.31-5.06793 2607.13 2.41374 2570.95 9.89541 2501.64 34.4178 2457.42 71.4097 2413.2 108.402 2362.05 187.234 2341.81 224.364 2321.57 261.495 2334.33 286.433 2335.99 294.192 2337.65 301.95 2345.97 263.296 2351.79 270.916 2357.61 278.536 2361.77 324.118 2370.92 339.912 2380.07 355.706 2399.34 336.725 2406.69 365.681 2414.03 394.637 2419.58 468.482 2415 513.648 2410.43 558.814 2390.88 604.95 2379.24 636.677 2367.6 668.404 2351.65 681.427 2345.14 704.01 2338.62 726.593 2333.22 773.422 2340.15 772.175 2347.08 770.928 2380.21 697.36 2386.72 696.528 2393.24 695.697 2371.34 746.821 2379.24 767.187 2387.14 787.553 2428.31 825.376 2434.13 818.726 2439.96 812.076 2408.63 753.333 2414.17 727.286 2419.72 701.239 2448.27 674.5 2467.4 662.446 2486.53 650.393 2516.75 663.97 2528.95 654.965 2541.15 645.96 2552.38 633.213 2540.59 608.413 2528.81 583.614 2478.08 558.122 2458.25 506.167 2438.43 454.212 2398.37 361.94 2421.66 296.685 2444.95 231.43 2597.98 114.636 2597.98 114.636L2674.5 26.5207Z" stroke="#000000" stroke-width="4.58333" stroke-miterlimit="8" fill-rule="evenodd"/><path d="M2733.16 643.468C2773.33 647.831 2737.52 643.278 2753.63 649.159 2769.73 655.039 2812.56 670.215 2829.8 678.751 2847.04 687.287 2851.02 683.304 2857.09 700.376 2863.15 717.449 2858.79 701.894 2866.18 781.187 2873.57 860.48 2959.6 1100.07 2901.43 1176.14 2843.25 1252.2 2609.05 1230.96 2517.15 1237.6 2425.25 1244.24 2382.8 1232.66 2350.02 1215.97 2317.24 1199.28 2318.19 1217.11 2320.46 1137.44 2322.74 1057.76 2331.64 823.679 2363.67 737.936 2395.69 652.194 2448.56 639.104 2512.6 622.98 2576.65 606.856 2692.99 639.104 2733.16 643.468Z" stroke="#000000" stroke-width="4.58333" stroke-miterlimit="8" fill="#203864" fill-rule="evenodd"/><path d="M2418.62 370.303C2410.71 353.604 2392.31 364.673 2386.59 370.876 2380.87 377.078 2382.2 392.537 2384.3 407.519 2386.4 422.501 2390.88 450.175 2399.17 460.767 2407.47 471.36 2431.4 486.151 2434.07 471.073 2436.74 455.996 2426.53 387.003 2418.62 370.303Z" stroke="#000000" stroke-width="4.58333" stroke-miterlimit="8" fill="#F2A16A" fill-rule="evenodd"/><path d="M36.1208 8.80316C28.2074-7.89644 9.807 3.17279 4.08661 9.37553-1.63378 15.5783-0.299082 31.0372 1.79846 46.0193 3.89599 61.0014 8.37682 88.675 16.6715 99.2674 24.9661 109.86 48.8967 124.651 51.5661 109.573 54.2355 94.4962 44.0342 25.5028 36.1208 8.80316Z" stroke="#000000" stroke-width="4.58333" stroke-miterlimit="8" fill="#F2A16A" fill-rule="evenodd" transform="matrix(-1 0 0 1 2834.5 363.5)"/><path d="M2688.49 566.392C2716.4 575.701 2689.63 616.182 2697.89 632.402 2706.15 648.622 2733.63 648.623 2738.05 663.714 2742.46 678.806 2746.45 707.016 2724.38 722.954 2702.31 738.892 2647.2 761.601 2605.61 759.344 2564.03 757.087 2494.54 727.749 2474.89 709.413 2455.24 691.077 2480.16 663.432 2487.71 649.328 2495.25 635.223 2516.47 639.455 2520.17 624.786 2523.88 610.117 2508.21 569.354 2509.92 561.314 2511.63 553.275 2500.95 574.432 2530.43 576.547 2559.9 578.663 2660.58 557.083 2688.49 566.392Z" stroke="#000000" stroke-width="4.58333" stroke-miterlimit="8" fill="#F2A16A" fill-rule="evenodd"/><path d="M2411.5 359.5C2411.5 221.981 2499.48 110.5 2608 110.5 2716.52 110.5 2804.5 221.981 2804.5 359.5 2804.5 497.019 2716.52 608.5 2608 608.5 2499.48 608.5 2411.5 497.019 2411.5 359.5Z" stroke="#000000" stroke-width="4.58333" stroke-miterlimit="8" fill="#F2A16A" fill-rule="evenodd"/><path d="M2671.07 32.2046C2687.11 17.5547 2684.94 27.7244 2697.56 30.8785 2710.19 34.0326 2724.85 32.3718 2746.8 51.1303 2768.75 69.8891 2806.64 122.696 2829.26 143.431 2851.88 164.165 2878.98 169.324 2882.51 175.535 2886.04 181.746 2849.97 177.732 2850.44 180.694 2850.92 183.656 2879.08 188.625 2885.37 193.307 2891.67 197.989 2890.15 207.448 2888.24 208.786 2886.33 210.124 2873.64 198.562 2873.92 201.333 2874.21 204.104 2887.66 216.525 2889.96 225.411 2892.25 234.297 2895.2 238.215 2887.66 254.649 2880.13 271.084 2855.79 305.29 2844.72 324.018 2833.65 342.745 2826.59 358.607 2821.24 367.015 2815.9 375.423 2815.52 374.467 2812.65 374.467 2809.79 374.467 2805.4 374.945 2804.06 367.015 2802.73 359.084 2807.69 347.523 2804.64 326.884 2801.58 306.246 2799.77 272.23 2785.74 243.184 2771.71 214.137 2746.8 174.77 2720.46 152.603 2694.12 130.436 2647.55 115.817 2627.7 110.18 2607.85 104.542 2594.39 131.582 2601.36 118.779 2608.33 105.975 2655.04 46.8545 2671.07 32.2046Z" stroke="#000000" stroke-width="4.58333" stroke-miterlimit="8" fill-rule="evenodd"/><path d="M2592.47 112.807C2593.42 117.759 2571.29 113.453 2566.42 113.453 2561.55 113.453 2566.53 111.085 2563.25 112.807 2559.96 114.53 2550.22 127.664 2546.73 123.788 2543.24 119.913 2539.95 96.2283 2542.28 89.5537 2544.61 82.8791 2552.34 80.9411 2560.71 83.7402 2569.07 86.5393 2591.52 107.855 2592.47 112.807Z" stroke="#000000" stroke-width="4.58333" stroke-miterlimit="8" fill-rule="evenodd"/><path d="M2577.5 85.5001C2577.5 73.9021 2589.81 64.5001 2605 64.5001 2620.19 64.5001 2632.5 73.9021 2632.5 85.5001 2632.5 97.0981 2620.19 106.5 2605 106.5 2589.81 106.5 2577.5 97.0981 2577.5 85.5001Z" stroke="#000000" stroke-width="4.58333" stroke-miterlimit="8" fill-rule="evenodd"/><path d="M2670.6 303.058C2661.77 301.54 2683.51 291.773 2696.69 291.337 2709.88 290.901 2755.69 295.714 2749.7 300.444 2743.72 305.175 2679.44 304.576 2670.6 303.058Z" stroke="#000000" stroke-width="4.58333" stroke-miterlimit="8" fill-rule="evenodd"/><path d="M2586.5 457.5 2590.5 441.5 2628.5 441.5 2632.5 457.5Z" stroke="#000000" stroke-width="4.58333" stroke-miterlimit="8" fill="#F2A16A" fill-rule="evenodd"/><path d="M2602.45 116.037C2603.84 110.352 2573.01 69.7258 2561.62 51.1457 2550.23 32.5656 2545.79 3.03133 2534.12 4.55668 2522.46 6.08202 2513.15 40.6077 2491.63 60.2971 2470.1 79.9864 2427.46 100.23 2404.96 122.693 2382.46 145.155 2370.52 171.916 2356.63 195.072 2342.74 218.227 2319.55 250.118 2321.63 261.627 2323.71 273.136 2351.77 267.451 2369.13 264.123 2386.49 260.795 2398.16 258.577 2425.79 241.661 2453.43 224.745 2513.71 188.694 2534.96 162.626 2556.21 136.559 2543.57 92.3268 2553.29 85.2553 2563.01 78.1837 2601.07 121.722 2602.45 116.037Z" stroke="#000000" stroke-width="4.58333" stroke-miterlimit="8" fill="#0D0D0D" fill-rule="evenodd"/><path d="M2844.56 719.716C2846.67 658.317 2914.48 731.458 2934.8 744.667 2955.11 757.877 2952.47 739.041 2966.46 798.973 2980.44 858.905 3026.08 1051.91 3018.7 1104.26 3011.31 1156.61 2949.57 1175.93 2922.13 1113.06 2894.69 1050.2 2842.45 781.116 2844.56 719.716Z" stroke="#000000" stroke-width="4.58333" stroke-miterlimit="8" fill="#203864" fill-rule="evenodd"/><path d="M2234.5 1163C2234.5 1118.54 2279.5 1082.5 2335 1082.5 2390.5 1082.5 2435.5 1118.54 2435.5 1163 2435.5 1207.46 2390.5 1243.5 2335 1243.5 2279.5 1243.5 2234.5 1207.46 2234.5 1163Z" stroke="#000000" stroke-width="4.58333" stroke-miterlimit="8" fill="#F6BE98" fill-rule="evenodd"/><path d="M2804.5 1167C2804.5 1122.54 2849.5 1086.5 2905 1086.5 2960.5 1086.5 3005.5 1122.54 3005.5 1167 3005.5 1211.46 2960.5 1247.5 2905 1247.5 2849.5 1247.5 2804.5 1211.46 2804.5 1167Z" stroke="#000000" stroke-width="4.58333" stroke-miterlimit="8" fill="#F6BE98" fill-rule="evenodd"/><path d="M2128.5 770.5 3112.5 770.5 2915.7 1241.5 2325.3 1241.5Z" stroke="#000000" stroke-width="4.58333" stroke-miterlimit="8" fill="#A5A5A5" fill-rule="evenodd"/><path d="M1.23558 3.25203C-5.66319-2.47234 18.051-0.0875878 29.6929 6.11395 41.3347 12.3155 78.6315 39.3479 71.0858 40.4608 63.5405 41.5741 8.13435 8.97641 1.23558 3.25203Z" stroke="#000000" stroke-width="4.58333" stroke-miterlimit="8" fill-rule="evenodd" transform="matrix(-0.917688 -0.397302 -0.397302 0.917688 2548.86 298.953)"/><path d="M2533.5 376.5C2533.5 369.32 2537.53 363.5 2542.5 363.5 2547.47 363.5 2551.5 369.32 2551.5 376.5 2551.5 383.68 2547.47 389.5 2542.5 389.5 2537.53 389.5 2533.5 383.68 2533.5 376.5Z" stroke="#000000" stroke-width="4.58333" stroke-miterlimit="8" fill-rule="evenodd"/><path d="M2664.5 376.5C2664.5 369.32 2668.53 363.5 2673.5 363.5 2678.47 363.5 2682.5 369.32 2682.5 376.5 2682.5 383.68 2678.47 389.5 2673.5 389.5 2668.53 389.5 2664.5 383.68 2664.5 376.5Z" stroke="#000000" stroke-width="4.58333" stroke-miterlimit="8" fill-rule="evenodd"/><path d="M2607.5 510C2571.33 510 2542 504.404 2542 497.5" stroke="#000000" stroke-width="2.29167" stroke-miterlimit="8" fill="none" fill-rule="evenodd"/><path d="M2682.5 1010.5 2664.5 1082.5 2565.5 1082.5 2547.5 1010.5Z" stroke="#000000" stroke-width="4.58333" stroke-miterlimit="8" fill="#D9D9D9" fill-rule="evenodd"/></g></svg>