<svg width="992" height="1252" xmlns="http://www.w3.org/2000/svg" xmlns:xlink="http://www.w3.org/1999/xlink" xml:space="preserve" overflow="hidden"><defs><clipPath id="clip0"><rect x="3046" y="722" width="992" height="1252"/></clipPath></defs><g clip-path="url(#clip0)" transform="translate(-3046 -722)"><path d="M0.0621584 24.2694C2.18478-37.2645 70.3797 36.0368 90.8113 49.2751 111.243 62.5134 108.59 43.6367 122.653 103.699 136.717 163.762 182.622 357.189 175.192 409.652 167.762 462.116 105.671 481.483 78.0745 418.478 50.4783 355.473-2.06046 85.8032 0.0621584 24.2694Z" stroke="#2F528F" stroke-width="4.58333" stroke-miterlimit="8" fill="#203864" fill-rule="evenodd" transform="matrix(-1 0 0 1 3304.5 1425.5)"/><path d="M3596.5 750.521C3580.91 734.727 3565.31 718.932 3529.13 726.414 3492.95 733.896 3423.64 758.418 3379.42 795.41 3335.2 832.402 3284.05 911.234 3263.81 948.365 3243.57 985.495 3256.33 1010.43 3257.99 1018.19 3259.65 1025.95 3267.97 987.296 3273.79 994.916 3279.61 1002.54 3283.77 1048.12 3292.92 1063.91 3302.07 1079.71 3321.34 1060.72 3328.69 1089.68 3336.03 1118.64 3341.58 1192.48 3337 1237.65 3332.43 1282.81 3312.88 1328.95 3301.24 1360.68 3289.6 1392.4 3273.65 1405.43 3267.14 1428.01 3260.62 1450.59 3255.22 1497.42 3262.15 1496.17 3269.08 1494.93 3302.21 1421.36 3308.72 1420.53 3315.24 1419.7 3293.34 1470.82 3301.24 1491.19 3309.14 1511.55 3350.31 1549.38 3356.13 1542.73 3361.95 1536.08 3330.63 1477.33 3336.17 1451.29 3341.72 1425.24 3370.27 1398.5 3389.4 1386.45 3408.53 1374.39 3438.75 1387.97 3450.95 1378.97 3463.15 1369.96 3474.38 1357.21 3462.59 1332.41 3450.81 1307.61 3400.08 1282.12 3380.25 1230.17 3360.43 1178.21 3320.37 1085.94 3343.66 1020.69 3366.95 955.43 3519.98 838.636 3519.98 838.636L3596.5 750.521Z" stroke="#000000" stroke-width="4.58333" stroke-miterlimit="8" fill-rule="evenodd"/><path d="M3654.85 1367.47C3695.09 1371.83 3659.22 1367.28 3675.35 1373.16 3691.48 1379.04 3734.38 1394.21 3751.65 1402.75 3768.92 1411.29 3772.91 1407.3 3778.98 1424.38 3785.05 1441.45 3780.69 1425.89 3788.09 1505.19 3795.49 1584.48 3881.66 1824.07 3823.39 1900.14 3765.12 1976.2 3530.53 1954.96 3438.48 1961.6 3346.43 1968.24 3303.91 1956.66 3271.07 1939.97 3238.24 1923.28 3239.19 1941.11 3241.47 1861.44 3243.74 1781.76 3252.66 1547.68 3284.74 1461.94 3316.82 1376.19 3369.77 1363.1 3433.92 1346.98 3498.08 1330.86 3614.61 1363.1 3654.85 1367.47Z" stroke="#203864" stroke-width="4.58333" stroke-miterlimit="8" fill="#203864" fill-rule="evenodd"/><path d="M3340.12 1092.8C3332.21 1076.1 3313.81 1087.17 3308.09 1093.38 3302.37 1099.58 3303.7 1115.04 3305.8 1130.02 3307.9 1145 3312.38 1172.67 3320.67 1183.27 3328.97 1193.86 3352.9 1208.65 3355.57 1193.57 3358.24 1178.5 3348.03 1109.5 3340.12 1092.8Z" fill="#F2A16A" fill-rule="evenodd"/><path d="M36.1211 8.80316C28.2076-7.89644 9.80707 3.17279 4.08664 9.37553-1.63379 15.5783-0.299084 31.0372 1.79847 46.0193 3.89602 61.0014 8.37687 88.675 16.6716 99.2674 24.9663 109.86 48.897 124.651 51.5664 109.573 54.2358 94.4962 44.0345 25.5028 36.1211 8.80316Z" fill="#F2A16A" fill-rule="evenodd" transform="matrix(-1 0 0 1 3756 1087)"/><path d="M3610.3 1290.39C3638.31 1299.7 3611.44 1340.18 3619.73 1356.4 3628.02 1372.62 3655.61 1372.62 3660.04 1387.71 3664.47 1402.81 3668.47 1431.02 3646.31 1446.95 3624.16 1462.89 3568.85 1485.6 3527.12 1483.34 3485.38 1481.09 3415.64 1451.75 3395.92 1433.41 3376.19 1415.08 3401.2 1387.43 3408.78 1373.33 3416.35 1359.22 3437.65 1363.45 3441.37 1348.79 3445.08 1334.12 3429.36 1293.35 3431.07 1285.31 3432.79 1277.27 3422.07 1298.43 3451.66 1300.55 3481.24 1302.66 3582.29 1281.08 3610.3 1290.39Z" stroke="#F2A16A" stroke-width="4.58333" stroke-miterlimit="8" fill="#F2A16A" fill-rule="evenodd"/><path d="M3333 1083C3333 945.481 3420.98 834 3529.5 834 3638.02 834 3726 945.481 3726 1083 3726 1220.52 3638.02 1332 3529.5 1332 3420.98 1332 3333 1220.52 3333 1083Z" stroke="#F4B183" stroke-width="13.75" stroke-miterlimit="8" fill="#F4B183" fill-rule="evenodd"/><path d="M3593.07 749.205C3609.11 734.555 3606.94 744.724 3619.56 747.879 3632.19 751.033 3646.85 749.372 3668.8 768.13 3690.75 786.889 3728.64 839.696 3751.26 860.431 3773.88 881.165 3800.98 886.324 3804.51 892.535 3808.04 898.746 3771.97 894.732 3772.44 897.694 3772.92 900.656 3801.08 905.625 3807.37 910.307 3813.67 914.989 3812.15 924.448 3810.24 925.786 3808.33 927.124 3795.64 915.562 3795.92 918.333 3796.21 921.104 3809.66 933.525 3811.95 942.411 3814.25 951.297 3817.2 955.215 3809.66 971.649 3802.12 988.084 3777.79 1022.29 3766.72 1041.02 3755.65 1059.75 3748.59 1075.61 3743.24 1084.01 3737.9 1092.42 3737.51 1091.47 3734.65 1091.47 3731.79 1091.47 3727.4 1091.95 3726.06 1084.01 3724.73 1076.08 3729.69 1064.52 3726.64 1043.88 3723.58 1023.25 3721.77 989.23 3707.74 960.184 3693.71 931.137 3668.8 891.771 3642.46 869.603 3616.12 847.436 3569.55 832.817 3549.7 827.18 3529.85 821.542 3516.39 848.582 3523.36 835.779 3530.32 822.975 3577.04 763.855 3593.07 749.205Z" stroke="#000000" stroke-width="4.58333" stroke-miterlimit="8" fill-rule="evenodd"/><path d="M3514.47 836.807C3515.42 841.759 3493.29 837.453 3488.42 837.453 3483.55 837.453 3488.53 835.085 3485.25 836.807 3481.96 838.53 3472.22 851.664 3468.73 847.788 3465.24 843.913 3461.95 820.228 3464.28 813.554 3466.61 806.879 3474.34 804.941 3482.71 807.74 3491.07 810.539 3513.52 831.855 3514.47 836.807Z" stroke="#000000" stroke-width="4.58333" stroke-miterlimit="8" fill-rule="evenodd"/><path d="M3499.5 809.5C3499.5 797.902 3511.81 788.5 3527 788.5 3542.19 788.5 3554.5 797.902 3554.5 809.5 3554.5 821.098 3542.19 830.5 3527 830.5 3511.81 830.5 3499.5 821.098 3499.5 809.5Z" stroke="#000000" stroke-width="4.58333" stroke-miterlimit="8" fill-rule="evenodd"/><path d="M3592.48 1026.89C3583.64 1025.37 3605.38 1015.6 3618.56 1015.16 3631.75 1014.73 3677.56 1019.54 3671.58 1024.27 3665.59 1029 3601.31 1028.4 3592.48 1026.89Z" stroke="#000000" stroke-width="4.58333" stroke-miterlimit="8" fill-rule="evenodd"/><path d="M3499.5 1191.5 3508.75 1154.5 3554.25 1154.5 3563.5 1191.5Z" stroke="#F4B183" stroke-width="4.58333" stroke-miterlimit="8" fill="#F2A16A" fill-rule="evenodd"/><path d="M3524.45 840.037C3525.84 834.352 3495.01 793.726 3483.62 775.146 3472.23 756.565 3467.79 727.031 3456.12 728.557 3444.46 730.082 3435.15 764.608 3413.63 784.297 3392.1 803.986 3349.46 824.23 3326.96 846.692 3304.46 869.155 3292.52 895.916 3278.63 919.072 3264.74 942.227 3241.55 974.118 3243.63 985.627 3245.71 997.135 3273.77 991.451 3291.13 988.123 3308.49 984.795 3320.16 982.577 3347.79 965.661 3375.43 948.745 3435.71 912.693 3456.96 886.626 3478.21 860.559 3465.57 816.327 3475.29 809.255 3485.01 802.184 3523.07 845.722 3524.45 840.037Z" stroke="#000000" stroke-width="4.58333" stroke-miterlimit="8" fill="#0D0D0D" fill-rule="evenodd"/><path d="M3766.56 1443.72C3768.67 1382.32 3836.48 1455.46 3856.8 1468.67 3877.11 1481.88 3874.47 1463.04 3888.46 1522.97 3902.44 1582.9 3948.08 1775.91 3940.7 1828.26 3933.31 1880.61 3871.57 1899.93 3844.13 1837.06 3816.69 1774.2 3764.45 1505.12 3766.56 1443.72Z" stroke="#2F528F" stroke-width="4.58333" stroke-miterlimit="8" fill="#203864" fill-rule="evenodd"/><path d="M3156.5 1887C3156.5 1842.54 3201.5 1806.5 3257 1806.5 3312.5 1806.5 3357.5 1842.54 3357.5 1887 3357.5 1931.46 3312.5 1967.5 3257 1967.5 3201.5 1967.5 3156.5 1931.46 3156.5 1887Z" stroke="#F4B184" stroke-width="4.58333" stroke-miterlimit="8" fill="#F6BE98" fill-rule="evenodd"/><path d="M3726.5 1891C3726.5 1846.54 3771.5 1810.5 3827 1810.5 3882.5 1810.5 3927.5 1846.54 3927.5 1891 3927.5 1935.46 3882.5 1971.5 3827 1971.5 3771.5 1971.5 3726.5 1935.46 3726.5 1891Z" stroke="#F4B184" stroke-width="4.58333" stroke-miterlimit="8" fill="#F6BE98" fill-rule="evenodd"/><path d="M3050.5 1494.5 4033.5 1494.5 3836.9 1965.5 3247.1 1965.5Z" stroke="#787878" stroke-width="4.58333" stroke-miterlimit="8" fill="#A5A5A5" fill-rule="evenodd"/><path d="M1.23558 3.25203C-5.66319-2.47234 18.051-0.0875878 29.6929 6.11395 41.3347 12.3155 78.6315 39.3479 71.0858 40.4608 63.5405 41.5741 8.13435 8.97641 1.23558 3.25203Z" stroke="#000000" stroke-width="4.58333" stroke-miterlimit="8" fill-rule="evenodd" transform="matrix(-0.917688 -0.397302 -0.397302 0.917688 3470.73 1022.78)"/><path d="M3455.5 1100C3455.5 1093.1 3459.53 1087.5 3464.5 1087.5 3469.47 1087.5 3473.5 1093.1 3473.5 1100 3473.5 1106.9 3469.47 1112.5 3464.5 1112.5 3459.53 1112.5 3455.5 1106.9 3455.5 1100Z" stroke="#000000" stroke-width="4.58333" stroke-miterlimit="8" fill-rule="evenodd"/><path d="M3586.5 1100C3586.5 1093.1 3590.53 1087.5 3595.5 1087.5 3600.47 1087.5 3604.5 1093.1 3604.5 1100 3604.5 1106.9 3600.47 1112.5 3595.5 1112.5 3590.53 1112.5 3586.5 1106.9 3586.5 1100Z" stroke="#000000" stroke-width="4.58333" stroke-miterlimit="8" fill-rule="evenodd"/><path d="M3529.5 1234C3493.33 1234 3464 1228.4 3464 1221.5" stroke="#000000" stroke-width="2.29167" stroke-miterlimit="8" fill="none" fill-rule="evenodd"/><path d="M3604.5 1734.5 3586.5 1806.5 3487.5 1806.5 3469.5 1734.5Z" stroke="#F2F2F2" stroke-width="4.58333" stroke-miterlimit="8" fill="#D9D9D9" fill-rule="evenodd"/></g></svg>