<?xml version="1.0" encoding="UTF-8"?>
<svg id="Layer_2" data-name="Layer 2" xmlns="http://www.w3.org/2000/svg" viewBox="0 0 336.34 447.69">
  <defs>
    <style>
      .cls-1 {
        fill: #3a9bb6;
      }

      .cls-2 {
        fill: #19313e;
      }

      .cls-3 {
        fill: #15224c;
      }
    </style>
  </defs>
  <g id="Layer_1-2" data-name="Layer 1">
    <g id="NewGroupe0">
      <g id="NewGroup26-0">
        <g>
          <path class="cls-2" d="m216.31,28.03c6.4,0,11.58,5.18,11.58,11.58s-5.18,11.58-11.58,11.58-11.58-5.18-11.58-11.58,5.18-11.58,11.58-11.58h0Zm50.57,11.58c0,6.4-5.18,11.58-11.58,11.58s-11.58-5.18-11.58-11.58,5.18-11.58,11.58-11.58,11.58,5.18,11.58,11.58h0Zm39,0c0,6.4-5.18,11.58-11.58,11.58s-11.58-5.18-11.58-11.58,5.18-11.58,11.58-11.58,11.58,5.18,11.58,11.58h0ZM13.09,274.19h30.76c-1.8-3.94-2.76-8.02-2.82-12.19-.01-.16-.01-.33-.01-.49,0-1.07.05-2.13.16-3.17H15.84V80.43h304.66v177.92h-25.34c.11,1.04.16,2.1.16,3.17,0,.16,0,.33-.01.49-.06,4.16-1.04,8.25-2.88,12.19h30.82c7.23,0,13.09-5.86,13.09-13.09V13.09c0-7.23-5.86-13.09-13.09-13.09H13.09C5.86,0,0,5.86,0,13.09v248.02c0,7.23,5.86,13.09,13.09,13.09h0Z"/>
          <path class="cls-1" d="m123.12,249.49c1.97-.79,3.41-2.13,4.34-4.03.91-1.91,1.38-3.78,1.38-5.63,0-1.3-.29-2.69-.89-4.13-.59-1.45-1.38-2.77-2.36-3.95-.99-1.18-2.17-2.17-3.55-2.96-1.38-.78-2.93-1.18-4.63-1.18-.79,0-2.36.33-4.74.99l-47.71,20.9c-4.33,1.9-6.92,4.85-7.77,8.86-.21.99-.32,2.05-.32,3.17,0,.16,0,.33.01.49.07,2.21.69,4.41,1.86,6.62,1.24,2.36,3.25,4.14,6.02,5.33l.56.24,47.75,20.85c2.62.66,4.2.99,4.73.99,3.41,0,6.12-1.26,8.08-3.75,1.97-2.49,2.96-5.19,2.96-8.08,0-1.84-.62-3.81-1.88-5.91-1.06-1.8-2.39-3.17-3.99-4.09-.27-.17-.55-.32-.84-.45l-28.09-11.74-.69-.29,8.19-3.36,21.58-8.86h0Z"/>
          <path class="cls-1" d="m190.35,191.33c-1.71,0-3.35.39-4.92,1.18-1.59.79-2.77,2.3-3.55,4.53l-20.9,61.31-1.24,3.66-4.16,12.19-18.27,53.58c-.27,1.05-.4,1.77-.4,2.17,0,3.16.89,5.62,2.67,7.4,1.78,1.77,3.84,2.66,6.22,2.66,1.7,0,3.45-.52,5.21-1.57,1.78-1.06,3.06-2.77,3.85-5.13l20.18-59.1,4.15-12.19,1.24-3.66,18.78-55c.4-.91.6-2.1.6-3.55,0-2.89-.99-5.03-2.96-6.41-1.96-1.38-4.13-2.07-6.51-2.07h0Z"/>
          <path class="cls-1" d="m214.21,273.74c-.29.13-.57.28-.84.45-1.6.93-2.93,2.29-3.98,4.09-1.26,2.1-1.88,4.07-1.88,5.91,0,2.89.95,5.59,2.85,8.08,1.91,2.5,4.57,3.75,7.99,3.75.39,0,2.04-.33,4.92-.99l47.55-20.85.56-.24c2.77-1.18,4.8-2.96,6.12-5.33,1.23-2.21,1.88-4.41,1.95-6.62.02-.16.02-.33.02-.49,0-1.12-.11-2.18-.33-3.17-.88-4.01-3.53-6.96-7.96-8.86l-47.51-20.9c-2.38-.66-3.95-.99-4.74-.99-1.84,0-3.45.4-4.83,1.18-1.38.79-2.56,1.78-3.55,2.96s-1.75,2.5-2.27,3.95c-.54,1.44-.79,2.83-.79,4.13,0,5,1.9,8.23,5.72,9.66l21.44,8.86,8.14,3.36-.69.29-27.89,11.74h0Z"/>
          <path class="cls-1" d="m116.99,185v-79.96c0-3.49-2.83-6.33-6.33-6.33h-61.68c-3.49,0-6.33,2.83-6.33,6.33v79.96c0,3.49,2.83,6.33,6.33,6.33h61.68c3.49,0,6.33-2.83,6.33-6.33h0Z"/>
          <path class="cls-1" d="m297.96,98.71h-136.49c-4.37,0-7.92,3.55-7.92,7.92s3.55,7.92,7.92,7.92h136.49c4.38,0,7.92-3.55,7.92-7.92s-3.55-7.92-7.92-7.92h0Z"/>
          <path class="cls-1" d="m161.47,146.24h96.27c4.37,0,7.92-3.55,7.92-7.92s-3.55-7.92-7.92-7.92h-96.27c-4.37,0-7.92,3.55-7.92,7.92s3.55,7.92,7.92,7.92h0Z"/>
          <path class="cls-1" d="m305.88,170c0-4.37-3.55-7.92-7.92-7.92h-136.49c-4.37,0-7.92,3.55-7.92,7.92s3.55,7.92,7.92,7.92h136.49c4.38,0,7.92-3.55,7.92-7.92h0Z"/>
          <path class="cls-1" d="m297.96,130.39h-13.41c-4.37,0-7.92,3.55-7.92,7.92s3.55,7.92,7.92,7.92h13.41c4.38,0,7.92-3.55,7.92-7.92s-3.55-7.92-7.92-7.92h0Z"/>
        </g>
      </g>
      <g id="text">
        <g>
          <path class="cls-3" d="m98.55,437.73h-9.16v9.64h-3.95v-22.75h14.45v3.19h-10.5v6.77h9.16v3.16Z"/>
          <path class="cls-3" d="m111.38,438.62h-4.41v8.75h-3.95v-22.75h8c2.62,0,4.65.59,6.08,1.77,1.43,1.18,2.14,2.88,2.14,5.11,0,1.52-.37,2.8-1.1,3.82-.73,1.03-1.76,1.82-3.07,2.37l5.11,9.47v.2h-4.23l-4.56-8.75Zm-4.41-3.19h4.06c1.33,0,2.38-.34,3.12-1.01s1.12-1.59,1.12-2.76-.35-2.16-1.04-2.83c-.69-.67-1.73-1.01-3.1-1.03h-4.17v7.62Z"/>
          <path class="cls-3" d="m141.15,436.59c0,2.23-.39,4.19-1.16,5.87-.77,1.68-1.87,2.97-3.3,3.88-1.43.9-3.08,1.35-4.95,1.35s-3.49-.45-4.93-1.35c-1.44-.9-2.56-2.18-3.34-3.85-.79-1.67-1.19-3.59-1.2-5.77v-1.28c0-2.22.39-4.18,1.18-5.88.79-1.7,1.9-3,3.33-3.9,1.43-.9,3.08-1.35,4.93-1.35s3.5.45,4.93,1.34c1.43.89,2.54,2.17,3.32,3.84.78,1.67,1.18,3.62,1.19,5.84v1.27Zm-3.95-1.19c0-2.52-.48-4.45-1.43-5.8-.95-1.34-2.3-2.02-4.05-2.02s-3.04.67-4.01,2.01c-.96,1.34-1.46,3.23-1.48,5.68v1.31c0,2.5.49,4.43,1.46,5.8.97,1.37,2.33,2.05,4.05,2.05s3.1-.67,4.04-2c.94-1.33,1.41-3.28,1.41-5.84v-1.19Z"/>
          <path class="cls-3" d="m163.13,447.38h-3.95l-10.14-16.14v16.14h-3.95v-22.75h3.95l10.17,16.2v-16.2h3.92v22.75Z"/>
          <path class="cls-3" d="m183.79,427.81h-7.09v19.56h-3.92v-19.56h-7.03v-3.19h18.05v3.19Z"/>
          <path class="cls-3" d="m207.1,437.22h-9.34v7h10.92v3.16h-14.88v-22.75h14.77v3.19h-10.81v6.28h9.34v3.12Z"/>
          <path class="cls-3" d="m229.95,447.38h-3.95l-10.14-16.14v16.14h-3.95v-22.75h3.95l10.17,16.2v-16.2h3.92v22.75Z"/>
          <path class="cls-3" d="m234.62,447.38v-22.75h6.72c2.01,0,3.79.45,5.35,1.34,1.56.9,2.76,2.17,3.62,3.81.85,1.65,1.28,3.53,1.28,5.66v1.14c0,2.16-.43,4.05-1.29,5.69-.86,1.64-2.08,2.9-3.67,3.78-1.59.89-3.41,1.33-5.46,1.33h-6.55Zm3.95-19.56v16.41h2.58c2.07,0,3.66-.65,4.77-1.95,1.11-1.3,1.67-3.16,1.7-5.59v-1.27c0-2.47-.54-4.35-1.61-5.66-1.07-1.3-2.63-1.95-4.67-1.95h-2.77Z"/>
        </g>
      </g>
    </g>
  </g>
</svg>