<svg width="993" height="1252" xmlns="http://www.w3.org/2000/svg" xmlns:xlink="http://www.w3.org/1999/xlink" xml:space="preserve" overflow="hidden"><defs><clipPath id="clip0"><rect x="1758" y="722" width="993" height="1252"/></clipPath></defs><g clip-path="url(#clip0)" transform="translate(-1758 -722)"><path d="M0.0621584 24.2694C2.18478-37.2645 70.3797 36.0368 90.8113 49.2751 111.243 62.5134 108.59 43.6367 122.653 103.699 136.717 163.762 182.622 357.189 175.192 409.652 167.762 462.116 105.671 481.483 78.0745 418.478 50.4783 355.473-2.06046 85.8032 0.0621584 24.2694Z" stroke="#2F528F" stroke-width="4.58333" stroke-miterlimit="8" fill="#4472C4" fill-rule="evenodd" transform="matrix(-1 0 0 1 2017.5 1425.5)"/><path d="M2308.5 750.521C2292.95 734.727 2277.4 718.932 2241.33 726.414 2205.25 733.896 2136.14 758.418 2092.05 795.41 2047.96 832.402 1996.96 911.234 1976.78 948.365 1956.6 985.495 1969.32 1010.43 1970.97 1018.19 1972.63 1025.95 1980.93 987.296 1986.73 994.916 1992.54 1002.54 1996.68 1048.12 2005.8 1063.91 2014.93 1079.71 2034.14 1060.72 2041.46 1089.68 2048.79 1118.64 2054.32 1192.48 2049.76 1237.65 2045.2 1282.81 2025.71 1328.95 2014.1 1360.68 2002.49 1392.4 1986.59 1405.43 1980.1 1428.01 1973.6 1450.59 1968.21 1497.42 1975.12 1496.17 1982.03 1494.93 2015.07 1421.36 2021.56 1420.53 2028.06 1419.7 2006.22 1470.82 2014.1 1491.19 2021.98 1511.55 2063.03 1549.38 2068.83 1542.73 2074.64 1536.08 2043.4 1477.33 2048.93 1451.29 2054.46 1425.24 2082.93 1398.5 2102 1386.45 2121.08 1374.39 2151.21 1387.97 2163.37 1378.97 2175.54 1369.96 2186.73 1357.21 2174.98 1332.41 2163.23 1307.61 2112.65 1282.12 2092.88 1230.17 2073.12 1178.21 2033.17 1085.94 2056.39 1020.69 2079.61 955.43 2232.2 838.636 2232.2 838.636L2308.5 750.521Z" stroke="#000000" stroke-width="4.58333" stroke-miterlimit="8" fill-rule="evenodd"/><path d="M2367.16 1367.47C2407.33 1371.83 2371.52 1367.28 2387.63 1373.16 2403.73 1379.04 2446.56 1394.21 2463.8 1402.75 2481.04 1411.29 2485.02 1407.3 2491.09 1424.38 2497.15 1441.45 2492.79 1425.89 2500.18 1505.19 2507.57 1584.48 2593.6 1824.07 2535.43 1900.14 2477.25 1976.2 2243.05 1954.96 2151.15 1961.6 2059.25 1968.24 2016.8 1956.66 1984.02 1939.97 1951.24 1923.28 1952.19 1941.11 1954.46 1861.44 1956.74 1781.76 1965.64 1547.68 1997.67 1461.94 2029.69 1376.19 2082.56 1363.1 2146.6 1346.98 2210.65 1330.86 2326.99 1363.1 2367.16 1367.47Z" stroke="#2F528F" stroke-width="4.58333" stroke-miterlimit="8" fill="#4472C4" fill-rule="evenodd"/><path d="M2053.62 1093.3C2045.71 1076.6 2027.31 1087.67 2021.59 1093.88 2015.87 1100.08 2017.2 1115.54 2019.3 1130.52 2021.4 1145.5 2025.88 1173.17 2034.17 1183.77 2042.47 1194.36 2066.4 1209.15 2069.07 1194.07 2071.74 1179 2061.53 1110 2053.62 1093.3Z" stroke="#F4B183" stroke-width="4.58333" stroke-miterlimit="8" fill="#F4B183" fill-rule="evenodd"/><path d="M36.1208 8.80313C28.2074-7.89642 9.807 3.17278 4.08661 9.37551-1.63378 15.5782-0.299082 31.0371 1.79846 46.0191 3.89599 61.0012 8.37682 88.6747 16.6715 99.2671 24.9661 109.859 48.8967 124.65 51.5661 109.573 54.2355 94.4959 44.0342 25.5027 36.1208 8.80313Z" stroke="#F4B183" stroke-width="4.58333" stroke-miterlimit="8" fill="#F4B183" fill-rule="evenodd" transform="matrix(-1 0 0 1 2468.5 1087.5)"/><path d="M2322.49 1290.39C2350.4 1299.7 2323.63 1340.18 2331.89 1356.4 2340.15 1372.62 2367.63 1372.62 2372.05 1387.71 2376.46 1402.81 2380.45 1431.02 2358.38 1446.95 2336.31 1462.89 2281.2 1485.6 2239.61 1483.34 2198.03 1481.09 2128.54 1451.75 2108.89 1433.41 2089.24 1415.08 2114.16 1387.43 2121.71 1373.33 2129.25 1359.22 2150.47 1363.45 2154.17 1348.79 2157.88 1334.12 2142.21 1293.35 2143.92 1285.31 2145.63 1277.27 2134.95 1298.43 2164.43 1300.55 2193.9 1302.66 2294.58 1281.08 2322.49 1290.39Z" stroke="#F2A16A" stroke-width="4.58333" stroke-miterlimit="8" fill="#F2A16A" fill-rule="evenodd"/><path d="M2045 1083C2045 945.481 2133.2 834 2242 834 2350.8 834 2439 945.481 2439 1083 2439 1220.52 2350.8 1332 2242 1332 2133.2 1332 2045 1220.52 2045 1083Z" stroke="#F4B183" stroke-width="13.75" stroke-miterlimit="8" fill="#F4B183" fill-rule="evenodd"/><path d="M2305.07 749.205C2321.11 734.555 2318.94 744.724 2331.56 747.879 2344.19 751.033 2358.85 749.372 2380.8 768.13 2402.75 786.889 2440.64 839.696 2463.26 860.431 2485.88 881.165 2512.98 886.324 2516.51 892.535 2520.04 898.746 2483.97 894.732 2484.44 897.694 2484.92 900.656 2513.08 905.625 2519.37 910.307 2525.67 914.989 2524.15 924.448 2522.24 925.786 2520.33 927.124 2507.64 915.562 2507.92 918.333 2508.21 921.104 2521.66 933.525 2523.95 942.411 2526.25 951.297 2529.2 955.215 2521.66 971.649 2514.12 988.084 2489.79 1022.29 2478.72 1041.02 2467.65 1059.75 2460.59 1075.61 2455.24 1084.01 2449.9 1092.42 2449.51 1091.47 2446.65 1091.47 2443.79 1091.47 2439.4 1091.95 2438.06 1084.01 2436.73 1076.08 2441.69 1064.52 2438.64 1043.88 2435.58 1023.25 2433.77 989.23 2419.74 960.184 2405.71 931.137 2380.8 891.771 2354.46 869.603 2328.12 847.436 2281.55 832.817 2261.7 827.18 2241.85 821.542 2228.39 848.582 2235.36 835.779 2242.32 822.975 2289.04 763.855 2305.07 749.205Z" stroke="#000000" stroke-width="4.58333" stroke-miterlimit="8" fill-rule="evenodd"/><path d="M2227.47 836.807C2228.44 841.759 2205.88 837.453 2200.91 837.453 2195.95 837.453 2201.02 835.085 2197.67 836.807 2194.33 838.53 2184.39 851.664 2180.83 847.788 2177.27 843.913 2173.92 820.228 2176.3 813.554 2178.67 806.879 2186.55 804.941 2195.08 807.74 2203.61 810.539 2226.5 831.855 2227.47 836.807Z" stroke="#000000" stroke-width="4.58333" stroke-miterlimit="8" fill-rule="evenodd"/><path d="M2211.5 809.5C2211.5 797.902 2224.04 788.5 2239.5 788.5 2254.96 788.5 2267.5 797.902 2267.5 809.5 2267.5 821.098 2254.96 830.5 2239.5 830.5 2224.04 830.5 2211.5 821.098 2211.5 809.5Z" stroke="#000000" stroke-width="4.58333" stroke-miterlimit="8" fill-rule="evenodd"/><path d="M2304.89 1026.89C2296.06 1025.37 2317.8 1015.6 2330.98 1015.16 2344.17 1014.73 2389.98 1019.54 2383.99 1024.27 2378.01 1029 2313.73 1028.4 2304.89 1026.89Z" stroke="#000000" stroke-width="4.58333" stroke-miterlimit="8" fill-rule="evenodd"/><path d="M2211.5 1191.5 2220.75 1154.5 2266.25 1154.5 2275.5 1191.5Z" stroke="#F4B183" stroke-width="4.58333" stroke-miterlimit="8" fill="#F2A16A" fill-rule="evenodd"/><path d="M2237.45 846.615C2238.84 840.951 2208.12 800.479 2196.77 781.969 2185.42 763.459 2180.99 734.037 2169.37 735.557 2157.74 737.076 2148.47 771.471 2127.02 791.086 2105.57 810.701 2063.08 830.868 2040.66 853.245 2018.24 875.622 2006.34 902.282 1992.5 925.35 1978.67 948.418 1955.55 980.188 1957.63 991.653 1959.71 1003.12 1987.66 997.455 2004.96 994.14 2022.26 990.825 2033.88 988.614 2061.42 971.762 2088.96 954.91 2149.02 918.996 2170.2 893.027 2191.37 867.059 2178.78 822.994 2188.46 815.95 2198.15 808.905 2236.07 852.278 2237.45 846.615Z" stroke="#000000" stroke-width="4.58333" stroke-miterlimit="8" fill="#0D0D0D" fill-rule="evenodd"/><path d="M2478.56 1443.72C2480.68 1382.32 2548.88 1455.46 2569.31 1468.67 2589.74 1481.88 2587.09 1463.04 2601.15 1522.97 2615.22 1582.9 2661.12 1775.91 2653.69 1828.26 2646.26 1880.61 2584.17 1899.93 2556.57 1837.06 2528.98 1774.2 2476.44 1505.12 2478.56 1443.72Z" stroke="#2F528F" stroke-width="4.58333" stroke-miterlimit="8" fill="#4472C4" fill-rule="evenodd"/><path d="M1869.5 1887C1869.5 1842.54 1914.5 1806.5 1970 1806.5 2025.5 1806.5 2070.5 1842.54 2070.5 1887 2070.5 1931.46 2025.5 1967.5 1970 1967.5 1914.5 1967.5 1869.5 1931.46 1869.5 1887Z" stroke="#F4B184" stroke-width="4.58333" stroke-miterlimit="8" fill="#F6BE98" fill-rule="evenodd"/><path d="M2439.5 1891C2439.5 1846.54 2484.27 1810.5 2539.5 1810.5 2594.73 1810.5 2639.5 1846.54 2639.5 1891 2639.5 1935.46 2594.73 1971.5 2539.5 1971.5 2484.27 1971.5 2439.5 1935.46 2439.5 1891Z" stroke="#F4B184" stroke-width="4.58333" stroke-miterlimit="8" fill="#F6BE98" fill-rule="evenodd"/><path d="M1762.5 1494.5 2746.5 1494.5 2549.7 1965.5 1959.3 1965.5Z" stroke="#787878" stroke-width="4.58333" stroke-miterlimit="8" fill="#A5A5A5" fill-rule="evenodd"/><path d="M1.23558 3.25203C-5.66319-2.47234 18.051-0.0875878 29.6929 6.11395 41.3347 12.3155 78.6315 39.3479 71.0858 40.4608 63.5405 41.5741 8.13435 8.97641 1.23558 3.25203Z" stroke="#000000" stroke-width="4.58333" stroke-miterlimit="8" fill-rule="evenodd" transform="matrix(-0.917688 -0.397302 -0.397302 0.917688 2183.15 1022.78)"/><path d="M2167.5 1100C2167.5 1093.1 2171.75 1087.5 2177 1087.5 2182.25 1087.5 2186.5 1093.1 2186.5 1100 2186.5 1106.9 2182.25 1112.5 2177 1112.5 2171.75 1112.5 2167.5 1106.9 2167.5 1100Z" stroke="#000000" stroke-width="4.58333" stroke-miterlimit="8" fill-rule="evenodd"/><path d="M2298.5 1100C2298.5 1093.1 2302.75 1087.5 2308 1087.5 2313.25 1087.5 2317.5 1093.1 2317.5 1100 2317.5 1106.9 2313.25 1112.5 2308 1112.5 2302.75 1112.5 2298.5 1106.9 2298.5 1100Z" stroke="#000000" stroke-width="4.58333" stroke-miterlimit="8" fill-rule="evenodd"/><path d="M2241.5 1234C2205.33 1234 2176 1228.4 2176 1221.5" stroke="#000000" stroke-width="2.29167" stroke-miterlimit="8" fill="none" fill-rule="evenodd"/><path d="M2317.5 1734.5 2299.5 1806.5 2200.5 1806.5 2182.5 1734.5Z" stroke="#F2F2F2" stroke-width="4.58333" stroke-miterlimit="8" fill="#D9D9D9" fill-rule="evenodd"/></g></svg>