<?xml version="1.0" encoding="UTF-8"?>
<svg id="Layer_2" data-name="Layer 2" xmlns="http://www.w3.org/2000/svg" viewBox="0 0 1000 1000">
  <defs>
    <style>
      .cls-1 {
        fill: #fff;
      }

      .cls-2 {
        fill: #233642;
      }

      .cls-3 {
        fill: #19323f;
      }
    </style>
  </defs>
  <g id="Layer_1-2" data-name="Layer 1">
    <rect class="cls-1" width="1000" height="1000"/>
    <g>
      <path class="cls-3" d="m358.94,817.61l-10.26-40.44h5.52l4.8,20.46c1.2,5.04,2.28,10.08,3,13.98h.12c.66-4.02,1.92-8.82,3.3-14.04l5.4-20.4h5.46l4.92,20.52c1.14,4.8,2.22,9.6,2.82,13.86h.12c.84-4.44,1.98-8.94,3.24-13.98l5.34-20.4h5.34l-11.46,40.44h-5.46l-5.1-21.06c-1.26-5.16-2.1-9.12-2.64-13.2h-.12c-.72,4.02-1.62,7.98-3.12,13.2l-5.76,21.06h-5.46Z"/>
      <path class="cls-3" d="m424.04,798.65h-15.72v14.58h17.52v4.38h-22.74v-40.44h21.84v4.38h-16.62v12.78h15.72v4.32Z"/>
      <path class="cls-3" d="m432.62,777.71c2.28-.48,5.88-.84,9.54-.84,5.22,0,8.58.9,11.1,2.94,2.1,1.56,3.36,3.96,3.36,7.14,0,3.9-2.58,7.32-6.84,8.88v.12c3.84.96,8.34,4.14,8.34,10.14,0,3.48-1.38,6.12-3.42,8.1-2.82,2.58-7.38,3.78-13.98,3.78-3.6,0-6.36-.24-8.1-.48v-39.78Zm5.22,16.56h4.74c5.52,0,8.76-2.88,8.76-6.78,0-4.74-3.6-6.6-8.88-6.6-2.4,0-3.78.18-4.62.36v13.02Zm0,19.38c1.02.18,2.52.24,4.38.24,5.4,0,10.38-1.98,10.38-7.86,0-5.52-4.74-7.8-10.44-7.8h-4.32v15.42Z"/>
      <path class="cls-3" d="m465.14,777.71c3.18-.48,6.96-.84,11.1-.84,7.5,0,12.84,1.74,16.38,5.04,3.6,3.3,5.7,7.98,5.7,14.52s-2.04,12-5.82,15.72c-3.78,3.78-10.02,5.82-17.88,5.82-3.72,0-6.84-.18-9.48-.48v-39.78Zm5.22,35.76c1.32.24,3.24.3,5.28.3,11.16,0,17.22-6.24,17.22-17.16.06-9.54-5.34-15.6-16.38-15.6-2.7,0-4.74.24-6.12.54v31.92Z"/>
      <path class="cls-3" d="m526.04,798.65h-15.72v14.58h17.52v4.38h-22.74v-40.44h21.84v4.38h-16.62v12.78h15.72v4.32Z"/>
      <path class="cls-3" d="m533.9,811.25c2.34,1.44,5.76,2.64,9.36,2.64,5.34,0,8.46-2.82,8.46-6.9,0-3.78-2.16-5.94-7.62-8.04-6.6-2.34-10.68-5.76-10.68-11.46,0-6.3,5.22-10.98,13.08-10.98,4.14,0,7.14.96,8.94,1.98l-1.44,4.26c-1.32-.72-4.02-1.92-7.68-1.92-5.52,0-7.62,3.3-7.62,6.06,0,3.78,2.46,5.64,8.04,7.8,6.84,2.64,10.32,5.94,10.32,11.88,0,6.24-4.62,11.64-14.16,11.64-3.9,0-8.16-1.14-10.32-2.58l1.32-4.38Z"/>
      <path class="cls-3" d="m569.42,777.17v40.44h-5.22v-40.44h5.22Z"/>
      <path class="cls-3" d="m609.32,815.81c-2.34.84-6.96,2.22-12.42,2.22-6.12,0-11.16-1.56-15.12-5.34-3.48-3.36-5.64-8.76-5.64-15.06.06-12.06,8.34-20.88,21.9-20.88,4.68,0,8.34,1.02,10.08,1.86l-1.26,4.26c-2.16-.96-4.86-1.74-8.94-1.74-9.84,0-16.26,6.12-16.26,16.26s6.18,16.32,15.6,16.32c3.42,0,5.76-.48,6.96-1.08v-12.06h-8.22v-4.2h13.32v19.44Z"/>
      <path class="cls-3" d="m617.3,817.61v-40.44h5.7l12.96,20.46c3,4.74,5.34,9,7.26,13.14l.12-.06c-.48-5.4-.6-10.32-.6-16.62v-16.92h4.92v40.44h-5.28l-12.84-20.52c-2.82-4.5-5.52-9.12-7.56-13.5l-.18.06c.3,5.1.42,9.96.42,16.68v17.28h-4.92Z"/>
    </g>
    <g>
      <g>
        <g>
          <path class="cls-2" d="m652.59,463.85l-26.63,26.63v59.88h-257.49v-173.83h257.49v8.65l18.97-18.97c.08-.08.15-.15.23-.22l7.32-7.32c-.61-3.06-3.62-5.38-7.26-5.38h-296c-4.08,0-7.38,2.92-7.38,6.52v212.8h310.76v-108.75Z"/>
          <rect class="cls-2" x="386.8" y="392.81" width="63.75" height="48.8"/>
          <rect class="cls-2" x="462.27" y="392.81" width="39.03" height="16.25"/>
          <polygon class="cls-2" points="566.36 392.81 566.36 409.06 602.08 409.06 605.39 405.74 605.39 392.81 566.36 392.81"/>
          <path class="cls-2" d="m693.15,582.42h-147.63c0,6.88-5.63,12.52-12.52,12.52h-71.57c-6.88,0-12.52-5.63-12.52-12.52h-147.63c-3.46,0-6.24,3.05-5.73,6.46,1.27,8.36,4.98,6.83,10.74,13.15h0c2.72,2.98,6.57,4.68,10.6,4.68h360.63c4.03,0,7.88-1.7,10.6-4.68,5.76-6.32,9.47-4.79,10.74-13.15.52-3.42-2.27-6.46-5.73-6.46Z"/>
          <rect class="cls-2" x="514.32" y="392.81" width="39.03" height="16.25"/>
        </g>
        <path class="cls-2" d="m588.9,457.03c-1.31,1.31-3.44,1.31-4.76,0l-5.57-5.57c-1.31-1.31-1.31-3.45,0-4.76l73.43-73.43c1.31-1.31,3.44-1.31,4.76,0l5.57,5.57c1.31,1.31,1.31,3.44,0,4.76l-73.43,73.43Zm87.52-59.33c1.31-1.31,1.31-3.44,0-4.76l-5.57-5.57c-1.31-1.31-3.45-1.31-4.76,0l-73.42,73.43c-1.31,1.31-1.31,3.44,0,4.76l5.57,5.57c1.31,1.31,3.45,1.31,4.76,0l73.42-73.42Zm14.09,14.09c1.32-1.32,1.32-3.44,0-4.76l-5.57-5.57c-1.32-1.32-3.44-1.32-4.76,0l-73.43,73.42c-1.31,1.31-1.31,3.44,0,4.76l5.57,5.57c1.31,1.32,3.44,1.32,4.76,0l73.42-73.42Zm6.14-6.14l3.26-3.26c6.13-6.13,6.13-16.07,0-22.21l-16.31-16.31c-6.13-6.13-16.07-6.13-22.2,0l-3.26,3.26,38.51,38.51Z"/>
      </g>
      <circle class="cls-2" cx="410.55" cy="486.2" r="21.24" transform="translate(-156.97 774.06) rotate(-76.72)"/>
      <circle class="cls-2" cx="475.97" cy="486.2" r="21.24" transform="translate(-80.2 878.15) rotate(-80.78)"/>
      <rect class="cls-2" x="389.31" y="525.15" width="219.56" height="12"/>
      <path class="cls-2" d="m555.18,481.61l-.13-.13,2.04-9.55c-3.88-4.27-9.47-6.97-15.7-6.97-11.73,0-21.24,9.51-21.24,21.24s9.51,21.24,21.24,21.24c3.15,0,6.12-.7,8.81-1.93l4.98-23.9Z"/>
      <path class="cls-2" d="m585.05,497.34l23.81-5.4-37.77-37.77-5.13,24.08,19.09,19.09Zm-20.61-11.14l-3.46,16.6,16.6-3.77-13.15-12.84Z"/>
      <rect class="cls-2" x="462.27" y="429.25" width="91.07" height="12.36"/>
    </g>
  </g>
</svg>